<?xml version="1.0" encoding="utf-8"?>
<!-- Generator: Adobe Illustrator 15.1.0, SVG Export Plug-In . SVG Version: 6.00 Build 0)  -->
<!DOCTYPE svg PUBLIC "-//W3C//DTD SVG 1.1//EN" "http://www.w3.org/Graphics/SVG/1.1/DTD/svg11.dtd">
<svg version="1.1" id="Layer_1" xmlns="http://www.w3.org/2000/svg" xmlns:xlink="http://www.w3.org/1999/xlink" x="0px" y="0px"
	 width="370px" height="79px" viewBox="0 0 370 79" enable-background="new 0 0 370 79" xml:space="preserve">
<g id="grid">
</g>
<g id="ford_oval">
	<g>
		<g>
			<path fill="#D1D3D4" d="M97.776,5.89c-48.14,0-86.728,14.428-86.728,32.521c0,17.979,38.907,32.521,86.728,32.521
				c47.823,0,86.729-14.589,86.729-32.521C184.506,20.478,145.601,5.89,97.776,5.89z M183.976,35.897
				c0.032,0.156,0.058,0.314,0.083,0.474C184.035,36.213,184.006,36.056,183.976,35.897z"/>
		</g>
		
			<radialGradient id="SVGID_1_" cx="283.2197" cy="1505.3975" r="236.6312" gradientTransform="matrix(1.5825 0 0 1.5431 -351.0489 -1958.3875)" gradientUnits="userSpaceOnUse">
			<stop  offset="0" style="stop-color:#000000"/>
			<stop  offset="0.2164" style="stop-color:#00000C"/>
			<stop  offset="0.476" style="stop-color:#000023"/>
			<stop  offset="0.7" style="stop-color:#000033"/>
			<stop  offset="0.9045" style="stop-color:#004282"/>
			<stop  offset="0.9204" style="stop-color:#0063A1"/>
			<stop  offset="0.936" style="stop-color:#0184C0"/>
			<stop  offset="0.948" style="stop-color:#159BD5"/>
			<stop  offset="0.955" style="stop-color:#1CA6DF"/>
		</radialGradient>
		<path fill="url(#SVGID_1_)" d="M97.779,7.187c-47.182,0-85.397,13.946-85.397,31.203c0,17.252,38.215,31.202,85.397,31.202
			c47.186,0,85.397-13.95,85.397-31.202C183.176,21.136,144.964,7.187,97.779,7.187z"/>
		<g>
			<g>
				
					<linearGradient id="SVGID_2_" gradientUnits="userSpaceOnUse" x1="115.313" y1="3080.1797" x2="115.313" y2="2985.7534" gradientTransform="matrix(0.7 0 0 0.7 16.9146 -2084.4814)">
					<stop  offset="0" style="stop-color:#00053D"/>
					<stop  offset="0.1748" style="stop-color:#000840"/>
					<stop  offset="0.3297" style="stop-color:#001046"/>
					<stop  offset="0.4771" style="stop-color:#001950"/>
					<stop  offset="0.6198" style="stop-color:#00245D"/>
					<stop  offset="0.758" style="stop-color:#002F6E"/>
					<stop  offset="0.809" style="stop-color:#003475"/>
					<stop  offset="0.9226" style="stop-color:#005793"/>
					<stop  offset="1" style="stop-color:#006DA9"/>
				</linearGradient>
				<path fill="url(#SVGID_2_)" d="M19.203,39.595c0-14.283,35.354-25.861,78.963-25.861c40.118,0,73.241,9.799,78.293,22.483
					c-3.368-13.347-37.307-23.831-78.688-23.831c-43.612,0-78.962,11.646-78.962,26.017c0,1.168,0.236,2.319,0.689,3.45
					C19.305,41.108,19.203,40.356,19.203,39.595z"/>
				
					<linearGradient id="SVGID_3_" gradientUnits="userSpaceOnUse" x1="116.8438" y1="3080.1865" x2="116.8437" y2="2985.7488" gradientTransform="matrix(0.7 0 0 0.7 16.9146 -2084.4814)">
					<stop  offset="0" style="stop-color:#00053D"/>
					<stop  offset="0.1748" style="stop-color:#000840"/>
					<stop  offset="0.3297" style="stop-color:#001046"/>
					<stop  offset="0.4771" style="stop-color:#001950"/>
					<stop  offset="0.6198" style="stop-color:#00245D"/>
					<stop  offset="0.758" style="stop-color:#002F6E"/>
					<stop  offset="0.809" style="stop-color:#003475"/>
					<stop  offset="0.9226" style="stop-color:#005793"/>
					<stop  offset="1" style="stop-color:#006DA9"/>
				</linearGradient>
				<path fill="url(#SVGID_3_)" d="M179.08,35.144c0.35,1.068,0.528,2.155,0.528,3.258c0,15.729-36.64,28.482-81.836,28.482
					c-40.223,0-73.663-10.102-80.543-23.406c5.233,13.858,39.56,24.557,81.131,24.557c45.19,0,81.822-12.641,81.822-28.243
					C180.182,38.209,179.804,36.654,179.08,35.144z"/>
			</g>
			<g>
				
					<linearGradient id="SVGID_4_" gradientUnits="userSpaceOnUse" x1="136.6538" y1="3059.875" x2="136.6538" y2="2994.4485" gradientTransform="matrix(0.7 0 0 0.7 16.9268 -2081.623)">
					<stop  offset="0" style="stop-color:#00053D"/>
					<stop  offset="0.1748" style="stop-color:#000840"/>
					<stop  offset="0.3297" style="stop-color:#001046"/>
					<stop  offset="0.4771" style="stop-color:#001950"/>
					<stop  offset="0.6198" style="stop-color:#00245D"/>
					<stop  offset="0.758" style="stop-color:#002F6E"/>
					<stop  offset="0.809" style="stop-color:#003475"/>
					<stop  offset="0.9226" style="stop-color:#005793"/>
					<stop  offset="1" style="stop-color:#006DA9"/>
				</linearGradient>
				<path fill="url(#SVGID_4_)" d="M113.019,41.155c-1.834,1.912-1.969,4.38-0.77,5.492c0.429,0.397,0.922,0.58,1.45,0.611
					c-0.785-0.992-1.151-2.938-0.18-4.477c-0.18-0.455-0.214-0.969-0.111-1.48C113.444,41.124,113.212,40.956,113.019,41.155z"/>
				
					<linearGradient id="SVGID_5_" gradientUnits="userSpaceOnUse" x1="164.6294" y1="3060.126" x2="164.6294" y2="2993.8311" gradientTransform="matrix(0.7 0 0 0.7 16.9268 -2081.623)">
					<stop  offset="0" style="stop-color:#00053D"/>
					<stop  offset="0.1748" style="stop-color:#000840"/>
					<stop  offset="0.3297" style="stop-color:#001046"/>
					<stop  offset="0.4771" style="stop-color:#001950"/>
					<stop  offset="0.6198" style="stop-color:#00245D"/>
					<stop  offset="0.758" style="stop-color:#002F6E"/>
					<stop  offset="0.809" style="stop-color:#003475"/>
					<stop  offset="0.9226" style="stop-color:#005793"/>
					<stop  offset="1" style="stop-color:#006DA9"/>
				</linearGradient>
				<path fill="url(#SVGID_5_)" d="M131.938,45.3c-0.01-0.027-0.016-0.056-0.017-0.085c0.001,0.009,0.001,0.011,0.001,0.015
					c0.027,0.289,0.102,0.83,0.163,1.236c0.095-0.181,0.189-0.376,0.289-0.58c0.075-0.154,0.038-0.203-0.028-0.228
					C132.158,45.591,131.964,45.447,131.938,45.3z"/>
				
					<linearGradient id="SVGID_6_" gradientUnits="userSpaceOnUse" x1="168.6885" y1="3057.5752" x2="168.6885" y2="2996.8225" gradientTransform="matrix(0.7 0 0 0.7 16.9268 -2081.623)">
					<stop  offset="0" style="stop-color:#00053D"/>
					<stop  offset="0.1748" style="stop-color:#000840"/>
					<stop  offset="0.3297" style="stop-color:#001046"/>
					<stop  offset="0.4771" style="stop-color:#001950"/>
					<stop  offset="0.6198" style="stop-color:#00245D"/>
					<stop  offset="0.758" style="stop-color:#002F6E"/>
					<stop  offset="0.809" style="stop-color:#003475"/>
					<stop  offset="0.9226" style="stop-color:#005793"/>
					<stop  offset="1" style="stop-color:#006DA9"/>
				</linearGradient>
				<path fill="url(#SVGID_6_)" d="M135.223,40.933c0.027,0.309,0.263,0.346,0.454,0.072c0.051-0.072,0.108-0.165,0.176-0.271
					c-0.054-0.071-0.109-0.143-0.167-0.215c-0.268-0.315-0.904-1-1.52-1.539C134.779,39.563,135.151,40.278,135.223,40.933z"/>
				
					<linearGradient id="SVGID_7_" gradientUnits="userSpaceOnUse" x1="132.1528" y1="3058.4297" x2="132.1528" y2="2995.6416" gradientTransform="matrix(0.7 0 0 0.7 16.9268 -2081.623)">
					<stop  offset="0" style="stop-color:#00053D"/>
					<stop  offset="0.1748" style="stop-color:#000840"/>
					<stop  offset="0.3297" style="stop-color:#001046"/>
					<stop  offset="0.4771" style="stop-color:#001950"/>
					<stop  offset="0.6198" style="stop-color:#00245D"/>
					<stop  offset="0.758" style="stop-color:#002F6E"/>
					<stop  offset="0.809" style="stop-color:#003475"/>
					<stop  offset="0.9226" style="stop-color:#005793"/>
					<stop  offset="1" style="stop-color:#006DA9"/>
				</linearGradient>
				<path fill="url(#SVGID_7_)" d="M109.844,40.716c0.085-0.119,0.164-0.229,0.243-0.338c-0.359-1.105-0.912-2.189-1.305-2.6
					c0.49,0.669,0.721,1.628,0.687,2.857C109.46,40.953,109.692,40.933,109.844,40.716z"/>
				
					<linearGradient id="SVGID_8_" gradientUnits="userSpaceOnUse" x1="188.3379" y1="3015.0293" x2="188.3379" y2="3015.0198" gradientTransform="matrix(0.7 0 0 0.7 16.9268 -2081.623)">
					<stop  offset="0" style="stop-color:#00053D"/>
					<stop  offset="0.1748" style="stop-color:#000840"/>
					<stop  offset="0.3297" style="stop-color:#001046"/>
					<stop  offset="0.4771" style="stop-color:#001950"/>
					<stop  offset="0.6198" style="stop-color:#00245D"/>
					<stop  offset="0.758" style="stop-color:#002F6E"/>
					<stop  offset="0.809" style="stop-color:#003475"/>
					<stop  offset="0.9226" style="stop-color:#005793"/>
					<stop  offset="1" style="stop-color:#006DA9"/>
				</linearGradient>
				<path fill="url(#SVGID_8_)" d="M148.765,28.892L148.765,28.892c0,0.002,0,0.002,0,0.006
					C148.765,28.894,148.765,28.892,148.765,28.892z"/>
				
					<linearGradient id="SVGID_9_" gradientUnits="userSpaceOnUse" x1="158.4233" y1="3060.0977" x2="158.4233" y2="2993.8989" gradientTransform="matrix(0.7 0 0 0.7 16.9268 -2081.623)">
					<stop  offset="0" style="stop-color:#00053D"/>
					<stop  offset="0.1748" style="stop-color:#000840"/>
					<stop  offset="0.3297" style="stop-color:#001046"/>
					<stop  offset="0.4771" style="stop-color:#001950"/>
					<stop  offset="0.6198" style="stop-color:#00245D"/>
					<stop  offset="0.758" style="stop-color:#002F6E"/>
					<stop  offset="0.809" style="stop-color:#003475"/>
					<stop  offset="0.9226" style="stop-color:#005793"/>
					<stop  offset="1" style="stop-color:#006DA9"/>
				</linearGradient>
				<path fill="url(#SVGID_9_)" d="M123.957,52.507c0.213,0.113,0.428,0.188,0.653,0.227c-0.078-0.297-0.113-0.588-0.116-0.838
					c-0.023-2.146,0.644-4.295,2.355-6.395c2.072-2.556,4.251-3.827,5.765-3.127c-0.077-0.561-0.369-1.047-1.013-1.35
					c-1.512-0.729-3.815,0.604-5.9,3.17c-1.71,2.103-2.633,4.236-2.667,6.32C123.021,51.253,123.305,52.167,123.957,52.507z"/>
				
					<linearGradient id="SVGID_10_" gradientUnits="userSpaceOnUse" x1="101.1421" y1="3060.0908" x2="101.1421" y2="2993.9092" gradientTransform="matrix(0.7 0 0 0.7 16.9268 -2081.623)">
					<stop  offset="0" style="stop-color:#00053D"/>
					<stop  offset="0.1748" style="stop-color:#000840"/>
					<stop  offset="0.3297" style="stop-color:#001046"/>
					<stop  offset="0.4771" style="stop-color:#001950"/>
					<stop  offset="0.6198" style="stop-color:#00245D"/>
					<stop  offset="0.758" style="stop-color:#002F6E"/>
					<stop  offset="0.809" style="stop-color:#003475"/>
					<stop  offset="0.9226" style="stop-color:#005793"/>
					<stop  offset="1" style="stop-color:#006DA9"/>
				</linearGradient>
				<path fill="url(#SVGID_10_)" d="M91.836,41.419c0.268-0.117,0.302-0.271,0.251-0.51c-0.09-0.408-0.375-1.422-0.46-1.663
					c0,0,0,0,0-0.001c0.066,0.223,0.009,0.395-0.258,0.496c-2.322,0.881-4.65,2.248-6.258,4.402
					c-1.823,2.444-2.317,5.394-1.094,7.086c0.289,0.398,0.635,0.691,1.019,0.886c-0.658-2.026-0.181-4.745,1.368-6.836
					C87.999,43.119,89.792,42.306,91.836,41.419z"/>
				
					<linearGradient id="SVGID_11_" gradientUnits="userSpaceOnUse" x1="129.7603" y1="3060.0693" x2="129.7603" y2="2994.3442" gradientTransform="matrix(0.7 0 0 0.7 16.9268 -2081.623)">
					<stop  offset="0" style="stop-color:#00053D"/>
					<stop  offset="0.1748" style="stop-color:#000840"/>
					<stop  offset="0.3297" style="stop-color:#001046"/>
					<stop  offset="0.4771" style="stop-color:#001950"/>
					<stop  offset="0.6198" style="stop-color:#00245D"/>
					<stop  offset="0.758" style="stop-color:#002F6E"/>
					<stop  offset="0.809" style="stop-color:#003475"/>
					<stop  offset="0.9226" style="stop-color:#005793"/>
					<stop  offset="1" style="stop-color:#006DA9"/>
				</linearGradient>
				<path fill="url(#SVGID_11_)" d="M117.719,48.909c-0.553,0.395-1.273,0.833-2.171,1.167c-1.102,0.411-1.619,0.565-2.642,0.555
					c-1.286-0.009-2.445-0.555-3.262-1.827c-0.455-0.688-0.643-1.738-0.688-2.505c-0.005-0.085-0.116-0.235-0.238-0.038
					c-2.164,3.303-4.182,6.496-6.327,9.854c-0.11,0.156-0.209,0.258-0.43,0.269c-1.328,0-2.777-0.005-4.24,0.003
					c-0.154,0-0.258-0.068-0.292-0.176c0.115,0.516,0.3,1.441,0.352,1.656c0.035,0.146,0.146,0.222,0.308,0.222
					c1.571,0,3.498,0,4.804-0.006c0.194-0.01,0.33-0.121,0.432-0.269c1.949-3.051,4.033-6.367,6.025-9.428
					c0.439,1.541,0.662,2.264,1.476,2.986c0.826,0.742,1.589,0.934,2.717,0.945c1.024,0.012,2.032-0.397,3.229-0.896
					c0.431-0.179,0.816-0.4,1.161-0.621c0-0.568,0.057-1.137,0.157-1.68C118.098,49.06,118.041,48.685,117.719,48.909z"/>
				
					<linearGradient id="SVGID_12_" gradientUnits="userSpaceOnUse" x1="164.7515" y1="3060.0957" x2="164.7515" y2="2993.8889" gradientTransform="matrix(0.7 0 0 0.7 16.9268 -2081.623)">
					<stop  offset="0" style="stop-color:#00053D"/>
					<stop  offset="0.1748" style="stop-color:#000840"/>
					<stop  offset="0.3297" style="stop-color:#001046"/>
					<stop  offset="0.4771" style="stop-color:#001950"/>
					<stop  offset="0.6198" style="stop-color:#00245D"/>
					<stop  offset="0.758" style="stop-color:#002F6E"/>
					<stop  offset="0.809" style="stop-color:#003475"/>
					<stop  offset="0.9226" style="stop-color:#005793"/>
					<stop  offset="1" style="stop-color:#006DA9"/>
				</linearGradient>
				<path fill="url(#SVGID_12_)" d="M146.026,47.748c0,0.082-0.036,0.151-0.081,0.209c-2.063,2.521-4.348,4.903-6.53,6.587
					c-3.4,2.633-6.789,3.299-8.468,1.615c-0.625-0.629-0.968-1.528-1.01-2.284c-0.021-0.413-0.232-0.433-0.427-0.241
					c-2.004,1.982-5.486,4.18-8.656,2.616c-1.636-0.808-2.492-2.323-2.797-3.991c0.002,0.02,0.008,0.038,0.012,0.059
					c0.201,1.186,0.457,2.892,1.015,3.943c0.363,0.693,1.172,1.475,1.668,1.721c2.812,1.388,6.828-0.187,9.406-2.668
					c0.028-0.032,0.033-0.033,0.07-0.075c0.118,0.446,0.262,0.987,0.283,1.062c0.176,0.574,0.451,1.1,0.693,1.375
					c1.765,1.995,5.512,1.088,9.411-1.929c2.178-1.685,3.794-3.378,5.772-5.681c0.079-0.099,0.073-0.238,0.029-0.45
					C146.303,49.112,146.122,48.202,146.026,47.748z"/>
				
					<linearGradient id="SVGID_13_" gradientUnits="userSpaceOnUse" x1="142.3062" y1="3060.1104" x2="142.3062" y2="2993.874" gradientTransform="matrix(0.7 0 0 0.7 16.9268 -2081.623)">
					<stop  offset="0" style="stop-color:#00053D"/>
					<stop  offset="0.1748" style="stop-color:#000840"/>
					<stop  offset="0.3297" style="stop-color:#001046"/>
					<stop  offset="0.4771" style="stop-color:#001950"/>
					<stop  offset="0.6198" style="stop-color:#00245D"/>
					<stop  offset="0.758" style="stop-color:#002F6E"/>
					<stop  offset="0.809" style="stop-color:#003475"/>
					<stop  offset="0.9226" style="stop-color:#005793"/>
					<stop  offset="1" style="stop-color:#006DA9"/>
				</linearGradient>
				<path fill="url(#SVGID_13_)" d="M117.685,45.501c1.044-0.564,1.962-1.765,1.846-3.71c-0.06-0.966-0.341-1.963-0.792-2.769
					c0.307,0.59,0.437,1.271,0.326,1.988c-0.199,1.258-0.878,2.363-2.036,2.938c-0.98,0.479-2.125,0.396-2.925-0.32
					c-0.251-0.229-0.433-0.504-0.561-0.793c0.207,0.946,0.386,1.646,0.634,2.02C114.935,45.992,116.242,46.28,117.685,45.501z"/>
				
					<linearGradient id="SVGID_14_" gradientUnits="userSpaceOnUse" x1="178.4028" y1="3060.0928" x2="178.4028" y2="2993.9014" gradientTransform="matrix(0.7 0 0 0.7 16.9268 -2081.623)">
					<stop  offset="0" style="stop-color:#00053D"/>
					<stop  offset="0.1748" style="stop-color:#000840"/>
					<stop  offset="0.3297" style="stop-color:#001046"/>
					<stop  offset="0.4771" style="stop-color:#001950"/>
					<stop  offset="0.6198" style="stop-color:#00245D"/>
					<stop  offset="0.758" style="stop-color:#002F6E"/>
					<stop  offset="0.809" style="stop-color:#003475"/>
					<stop  offset="0.9226" style="stop-color:#005793"/>
					<stop  offset="1" style="stop-color:#006DA9"/>
				</linearGradient>
				<path fill="url(#SVGID_14_)" d="M149.241,31.185c-0.04-0.183-0.438-2.107-0.476-2.282c0.012,0.051,0,0.112-0.036,0.18
					c-0.66,1.142-13.361,20.479-14.164,22.479c-0.255,0.634-0.285,1.117-0.026,1.467c0.261,0.352,0.644,0.486,1.08,0.479
					c0.041-0.242,0.136-0.52,0.252-0.812c0.803-2.004,12.699-20.083,13.352-21.228C149.28,31.368,149.26,31.258,149.241,31.185z"/>
				
					<linearGradient id="SVGID_15_" gradientUnits="userSpaceOnUse" x1="114.4922" y1="3059.3545" x2="114.4922" y2="2994.6946" gradientTransform="matrix(0.7 0 0 0.7 16.9268 -2081.623)">
					<stop  offset="0" style="stop-color:#00053D"/>
					<stop  offset="0.1748" style="stop-color:#000840"/>
					<stop  offset="0.3297" style="stop-color:#001046"/>
					<stop  offset="0.4771" style="stop-color:#001950"/>
					<stop  offset="0.6198" style="stop-color:#00245D"/>
					<stop  offset="0.758" style="stop-color:#002F6E"/>
					<stop  offset="0.809" style="stop-color:#003475"/>
					<stop  offset="0.9226" style="stop-color:#005793"/>
					<stop  offset="1" style="stop-color:#006DA9"/>
				</linearGradient>
				<path fill="url(#SVGID_15_)" d="M96,38.082c0.037,0.038,0.068,0.079,0.101,0.122c0.765,1.138,1.18,2.738,1.222,4.393
					c0.048,0.35,0.197,0.357,0.367,0.178c0.154-0.157,0.305-0.321,0.454-0.485c-0.224-0.89-0.572-1.687-0.928-2.455
					C97.083,39.552,96.5,38.556,96,38.082z"/>
				
					<linearGradient id="SVGID_16_" gradientUnits="userSpaceOnUse" x1="104.1421" y1="3060.0771" x2="104.1421" y2="2994.3325" gradientTransform="matrix(0.7 0 0 0.7 16.9268 -2081.623)">
					<stop  offset="0" style="stop-color:#00053D"/>
					<stop  offset="0.1748" style="stop-color:#000840"/>
					<stop  offset="0.3297" style="stop-color:#001046"/>
					<stop  offset="0.4771" style="stop-color:#001950"/>
					<stop  offset="0.6198" style="stop-color:#00245D"/>
					<stop  offset="0.758" style="stop-color:#002F6E"/>
					<stop  offset="0.809" style="stop-color:#003475"/>
					<stop  offset="0.9226" style="stop-color:#005793"/>
					<stop  offset="1" style="stop-color:#006DA9"/>
				</linearGradient>
				<path fill="url(#SVGID_16_)" d="M102.992,43.685c0.892-0.761,1.867-1.254,2.478-1.017c0.368-0.946,0.194-1.468-0.199-1.723
					c-0.597-0.388-1.788,0.196-2.792,0.964c-2.741,2.074-5.042,5.309-6.208,6.755c-0.688,0.853-1.336,2.104-3.133,4.056
					c-2.825,3.066-6.57,4.828-10.179,3.609c-1.972-0.662-3.398-2.25-3.942-4.191c-0.108-0.379-0.319-0.481-0.523-0.233
					c-0.584,0.727-1.776,1.796-2.773,2.473c-0.108,0.077-0.376,0.237-0.609,0.122c-0.209-0.092-0.95-1.141-1.095-1.439
					c-0.018-0.031-0.029-0.067-0.035-0.1c0,0.003,0,0.006,0,0.014c0.258,1.287,0.291,1.437,0.644,2.027
					c0.4,0.66,0.787,1.121,0.874,1.161c0.234,0.116,0.47,0.01,0.588-0.056c0.772-0.396,2.282-1.558,2.932-2.366
					c0.198-0.187,0.386-0.062,0.449,0.137c0.272,0.861,0.671,1.524,1.115,2.229c0.487,0.783,1.463,1.599,2.725,1.947
					c1.636,0.455,3.402,0.539,5.719-0.35c1.86-0.712,3.808-2.162,5.308-3.789c1.799-1.951,2.448-3.204,3.132-4.059
					C98.63,48.414,100.447,45.858,102.992,43.685z"/>
				
					<linearGradient id="SVGID_17_" gradientUnits="userSpaceOnUse" x1="54.2212" y1="3060.0859" x2="54.2212" y2="2993.9058" gradientTransform="matrix(0.7 0 0 0.7 16.9268 -2081.623)">
					<stop  offset="0" style="stop-color:#00053D"/>
					<stop  offset="0.1748" style="stop-color:#000840"/>
					<stop  offset="0.3297" style="stop-color:#001046"/>
					<stop  offset="0.4771" style="stop-color:#001950"/>
					<stop  offset="0.6198" style="stop-color:#00245D"/>
					<stop  offset="0.758" style="stop-color:#002F6E"/>
					<stop  offset="0.809" style="stop-color:#003475"/>
					<stop  offset="0.9226" style="stop-color:#005793"/>
					<stop  offset="1" style="stop-color:#006DA9"/>
				</linearGradient>
				<path fill="url(#SVGID_17_)" d="M53.118,48.729c-0.364-1.43,0.029-2.969,0.603-4.121c0.914-1.84,2.194-2.719,3.458-3.514
					c0.542-0.345,0.784-0.679,0.461-1.574c-0.092-0.254-0.144-0.715-0.245-1.123c0.032,0.399-0.163,0.742-0.518,0.924
					c-1.541,0.787-3.395,2.133-4.312,3.971c-0.745,1.502-0.895,3.311,0.242,5.034C52.902,48.465,53.004,48.603,53.118,48.729z"/>
				
					<linearGradient id="SVGID_18_" gradientUnits="userSpaceOnUse" x1="83.855" y1="3060.0732" x2="83.855" y2="2993.9067" gradientTransform="matrix(0.7 0 0 0.7 16.9268 -2081.623)">
					<stop  offset="0" style="stop-color:#00053D"/>
					<stop  offset="0.1748" style="stop-color:#000840"/>
					<stop  offset="0.3297" style="stop-color:#001046"/>
					<stop  offset="0.4771" style="stop-color:#001950"/>
					<stop  offset="0.6198" style="stop-color:#00245D"/>
					<stop  offset="0.758" style="stop-color:#002F6E"/>
					<stop  offset="0.809" style="stop-color:#003475"/>
					<stop  offset="0.9226" style="stop-color:#005793"/>
					<stop  offset="1" style="stop-color:#006DA9"/>
				</linearGradient>
				<path fill="url(#SVGID_18_)" d="M63.902,29.438c-0.314-2.178,1.316-5.742,5.599-7.157c5.601-1.847,11.845-0.681,16.866,0.394
					c0.701-0.438,1.315-0.742,1.931-1.078c0.306-0.158-0.04-0.351-0.132-0.351c-6.476-1.217-13.208-2.792-19.64-0.411
					c-4.454,1.663-6.406,5.195-5.467,7.555C63.242,28.842,63.53,29.19,63.902,29.438z"/>
				
					<linearGradient id="SVGID_19_" gradientUnits="userSpaceOnUse" x1="75.2173" y1="3060.0908" x2="75.2173" y2="2993.8982" gradientTransform="matrix(0.7 0 0 0.7 16.9268 -2081.623)">
					<stop  offset="0" style="stop-color:#00053D"/>
					<stop  offset="0.1748" style="stop-color:#000840"/>
					<stop  offset="0.3297" style="stop-color:#001046"/>
					<stop  offset="0.4771" style="stop-color:#001950"/>
					<stop  offset="0.6198" style="stop-color:#00245D"/>
					<stop  offset="0.758" style="stop-color:#002F6E"/>
					<stop  offset="0.809" style="stop-color:#003475"/>
					<stop  offset="0.9226" style="stop-color:#005793"/>
					<stop  offset="1" style="stop-color:#006DA9"/>
				</linearGradient>
				<path fill="url(#SVGID_19_)" d="M81.02,36.343c2.133-0.266,4.046-0.385,5.932-0.562c0.561-0.055,0.988-0.104,1.193,0.1
					c0.682,0.682,1.472,1.305,1.997,1.606c0.348,0.004,0.64,0.079,0.845,0.266c0.219-0.03,0.421-0.151,0.551-0.278
					c0.245-0.236,0.254-0.518,0.213-0.758c-0.085-0.465-0.209-1.383-0.358-1.646c0.102,0.2,0.037,0.489-0.167,0.718
					c-0.149,0.171-0.382,0.331-0.681,0.325c-0.241-0.005-0.389-0.089-0.696-0.255c-0.632-0.342-1.421-0.905-1.947-1.567
					c-0.18-0.226-0.271-0.229-0.719-0.205c-2.017,0.117-5.162,0.42-7.293,0.687c-0.516,0.064-0.592,0.16-0.698,0.341
					c-3.397,5.604-7.026,11.644-11.008,15.688c-4.271,4.337-7.823,5.479-11.592,5.509c-4.353,0.03-8.226-2.438-9.202-6.769
					c0.523,2.417,2.084,5.334,3.887,6.604c1.834,1.293,3.642,1.723,5.753,1.76c4.286,0.074,8.201-1.692,12.351-5.908
					c3.985-4.044,7.435-9.691,10.835-15.293C80.331,36.503,80.449,36.415,81.02,36.343z"/>
				
					<linearGradient id="SVGID_20_" gradientUnits="userSpaceOnUse" x1="76.7944" y1="3060.1123" x2="76.7944" y2="2993.8796" gradientTransform="matrix(0.7 0 0 0.7 16.9268 -2081.623)">
					<stop  offset="0" style="stop-color:#00053D"/>
					<stop  offset="0.1748" style="stop-color:#000840"/>
					<stop  offset="0.3297" style="stop-color:#001046"/>
					<stop  offset="0.4771" style="stop-color:#001950"/>
					<stop  offset="0.6198" style="stop-color:#00245D"/>
					<stop  offset="0.758" style="stop-color:#002F6E"/>
					<stop  offset="0.809" style="stop-color:#003475"/>
					<stop  offset="0.9226" style="stop-color:#005793"/>
					<stop  offset="1" style="stop-color:#006DA9"/>
				</linearGradient>
				<path fill="url(#SVGID_20_)" d="M74.023,35.626c-1.927,0.053-3.606,0.627-5.239,1.848c-0.47,0.342-1.146,0.293-1.442-0.156
					c-0.099-0.152-0.147-0.319-0.151-0.488c-0.042,0.727,0.248,1.792,0.485,2.15c0.258,0.396,0.983,0.592,1.561,0.166
					c1.298-0.959,2.472-1.517,3.785-1.767c0.338-0.46,0.705-0.972,1.121-1.548c0.036-0.046,0.044-0.105,0.029-0.137
					C74.148,35.646,74.107,35.631,74.023,35.626z"/>
				
					<linearGradient id="SVGID_21_" gradientUnits="userSpaceOnUse" x1="151.5005" y1="3059.0352" x2="151.5005" y2="2994.0488" gradientTransform="matrix(0.7 0 0 0.7 16.9268 -2081.623)">
					<stop  offset="0" style="stop-color:#00053D"/>
					<stop  offset="0.1748" style="stop-color:#000840"/>
					<stop  offset="0.3297" style="stop-color:#001046"/>
					<stop  offset="0.4771" style="stop-color:#001950"/>
					<stop  offset="0.6198" style="stop-color:#00245D"/>
					<stop  offset="0.758" style="stop-color:#002F6E"/>
					<stop  offset="0.809" style="stop-color:#003475"/>
					<stop  offset="0.9226" style="stop-color:#005793"/>
					<stop  offset="1" style="stop-color:#006DA9"/>
				</linearGradient>
				<path fill="url(#SVGID_21_)" d="M122.938,19.638c0.028,0.039,0.053,0.082,0.078,0.127
					C122.993,19.716,122.968,19.671,122.938,19.638z"/>
				
					<linearGradient id="SVGID_22_" gradientUnits="userSpaceOnUse" x1="121.8325" y1="3060.083" x2="121.8325" y2="2993.908" gradientTransform="matrix(0.7 0 0 0.7 16.9268 -2081.623)">
					<stop  offset="0" style="stop-color:#00053D"/>
					<stop  offset="0.1748" style="stop-color:#000840"/>
					<stop  offset="0.3297" style="stop-color:#001046"/>
					<stop  offset="0.4771" style="stop-color:#001950"/>
					<stop  offset="0.6198" style="stop-color:#00245D"/>
					<stop  offset="0.758" style="stop-color:#002F6E"/>
					<stop  offset="0.809" style="stop-color:#003475"/>
					<stop  offset="0.9226" style="stop-color:#005793"/>
					<stop  offset="1" style="stop-color:#006DA9"/>
				</linearGradient>
				<path fill="url(#SVGID_22_)" d="M81,32.429c-0.078,0.092-0.036,0.182,0.098,0.17c0.606-0.028,1.192-0.058,1.772-0.088
					c2.095-3.277,4.334-5.16,7.76-7.688c0.253-0.19,0.511-0.328,0.427-1.058c6.875,1.526,12.107,4.058,20.991,4.082
					c2.649,0.006,6.388-0.877,8.397-2.089c2.311-1.391,2.925-2.411,3.01-3.493c0.026-0.336-0.061-0.836-0.117-1.097
					c-0.078-0.366-0.131-0.831-0.235-1.178c0.037,0.142,0.053,0.302,0.041,0.477c-0.07,1.241-1.031,2.436-3.398,3.728
					c-2.693,1.477-5.508,1.925-8.451,1.949c-7.113,0.059-13.741-2.715-20.598-4.205c0.01,0.302,0.087,0.658-0.165,0.849
					C86.732,25.588,83.3,28.433,81,32.429z"/>
				
					<linearGradient id="SVGID_23_" gradientUnits="userSpaceOnUse" x1="104.6567" y1="3057.832" x2="104.6567" y2="2995.2913" gradientTransform="matrix(0.7 0 0 0.7 16.9268 -2081.623)">
					<stop  offset="0" style="stop-color:#00053D"/>
					<stop  offset="0.1748" style="stop-color:#000840"/>
					<stop  offset="0.3297" style="stop-color:#001046"/>
					<stop  offset="0.4771" style="stop-color:#001950"/>
					<stop  offset="0.6198" style="stop-color:#00245D"/>
					<stop  offset="0.758" style="stop-color:#002F6E"/>
					<stop  offset="0.809" style="stop-color:#003475"/>
					<stop  offset="0.9226" style="stop-color:#005793"/>
					<stop  offset="1" style="stop-color:#006DA9"/>
				</linearGradient>
				<path fill="url(#SVGID_23_)" d="M90.259,30.5c0.284-0.251,0.639-0.369,0.942-0.315c0.263-0.521,0.338-1.146,0.019-1.42
					c-0.308-0.269-0.797-0.221-1.193,0.062c-0.085,0.082-0.18,0.164-0.274,0.248c-0.678,0.705-0.885,1.635-0.786,2.339
					c0.055,0.287,0.167,0.342,0.297,0.317c0.128-0.025,0.259-0.069,0.392-0.123C89.705,31.222,89.867,30.847,90.259,30.5z"/>
				
					<linearGradient id="SVGID_24_" gradientUnits="userSpaceOnUse" x1="106.7808" y1="3060.0908" x2="106.7808" y2="2993.9041" gradientTransform="matrix(0.7 0 0 0.7 16.9268 -2081.623)">
					<stop  offset="0" style="stop-color:#00053D"/>
					<stop  offset="0.1748" style="stop-color:#000840"/>
					<stop  offset="0.3297" style="stop-color:#001046"/>
					<stop  offset="0.4771" style="stop-color:#001950"/>
					<stop  offset="0.6198" style="stop-color:#00245D"/>
					<stop  offset="0.758" style="stop-color:#002F6E"/>
					<stop  offset="0.809" style="stop-color:#003475"/>
					<stop  offset="0.9226" style="stop-color:#005793"/>
					<stop  offset="1" style="stop-color:#006DA9"/>
				</linearGradient>
				<path fill="url(#SVGID_24_)" d="M93.122,32.835c0.327-0.719,0.504-1.285,0.363-2.521c-0.102-0.863-0.276-1.646-0.507-2.049
					c0.444,0.904,0.266,2.068-0.215,2.996c-0.651,1.248-1.728,1.916-2.76,2.238c0,0-0.217,0.048-0.186,0.244
					c0.026,0.225,0.759,0.688,1.217,1.012c0.065-0.018,0.164-0.057,0.164-0.057C91.726,34.495,92.61,33.957,93.122,32.835z"/>
				
					<linearGradient id="SVGID_25_" gradientUnits="userSpaceOnUse" x1="70.499" y1="3060.0928" x2="70.499" y2="2993.9001" gradientTransform="matrix(0.7 0 0 0.7 16.9268 -2081.623)">
					<stop  offset="0" style="stop-color:#00053D"/>
					<stop  offset="0.1748" style="stop-color:#000840"/>
					<stop  offset="0.3297" style="stop-color:#001046"/>
					<stop  offset="0.4771" style="stop-color:#001950"/>
					<stop  offset="0.6198" style="stop-color:#00245D"/>
					<stop  offset="0.758" style="stop-color:#002F6E"/>
					<stop  offset="0.809" style="stop-color:#003475"/>
					<stop  offset="0.9226" style="stop-color:#005793"/>
					<stop  offset="1" style="stop-color:#006DA9"/>
				</linearGradient>
				<path fill="url(#SVGID_25_)" d="M61.529,35.208c0.95,0.594,2.12,0.92,3.459,0.875c4.563-0.154,8.019-3.912,9.166-7.092
					c0.307-0.857,0.069-1.775-0.075-2.395c-0.057-0.24-0.136-0.779-0.31-1.166h-0.002c0.132,0.315,0.132,0.784-0.117,1.375
					c-1.882,4.424-5.479,7.933-9.858,8.08c-2.64,0.086-4.618-1.267-5.542-3.265C58.927,33.115,60.313,34.445,61.529,35.208z"/>
			</g>
		</g>
		<g>
			<path fill="#58595B" d="M97.776,5.89c-48.14,0-86.728,14.428-86.728,32.521c0,17.979,38.907,32.521,86.728,32.521
				c47.823,0,86.729-14.589,86.729-32.521C184.506,20.478,145.601,5.89,97.776,5.89z M11.645,38.769
				c-0.018-3.806,1.659-7.59,5.185-11.146C29.246,15.097,61.779,6.633,97.63,6.483c47.495-0.196,86.2,13.966,86.282,31.57
				c0.017,3.803-1.764,7.537-5.289,11.094c-12.418,12.527-44.849,21.041-80.699,21.189C50.43,70.533,11.725,56.372,11.645,38.769z
				 M183.976,35.897c0.032,0.156,0.058,0.314,0.083,0.474C184.035,36.213,184.006,36.056,183.976,35.897z"/>
		</g>
		<g>
			<g>
				
					<linearGradient id="SVGID_26_" gradientUnits="userSpaceOnUse" x1="90.7061" y1="697.4453" x2="70.6673" y2="622.6599" gradientTransform="matrix(1 0 0 1 -12 -611)">
					<stop  offset="0" style="stop-color:#B1B3B6"/>
					<stop  offset="0.35" style="stop-color:#DCDDDE"/>
					<stop  offset="0.65" style="stop-color:#DCDDDE"/>
					<stop  offset="1" style="stop-color:#B1B3B6"/>
				</linearGradient>
				<path fill="url(#SVGID_26_)" d="M16.638,27.431C29.123,14.836,61.688,6.362,97.629,6.213c4.98-0.021,9.861,0.119,14.614,0.402
					c-4.707-0.298-9.539-0.454-14.467-0.454c-47.945,0-86.465,14.376-86.465,32.249c0,0.851,0.098,1.688,0.272,2.522
					c-0.131-0.715-0.206-1.437-0.21-2.164C11.356,34.912,13.083,31.019,16.638,27.431z"/>
			</g>
			
				<linearGradient id="SVGID_27_" gradientUnits="userSpaceOnUse" x1="143.4634" y1="656.5205" x2="123.5193" y2="582.0881" gradientTransform="matrix(1 0 0 1 -12 -611)">
				<stop  offset="0" style="stop-color:#B1B3B6"/>
				<stop  offset="0.35" style="stop-color:#DCDDDE"/>
				<stop  offset="0.65" style="stop-color:#DCDDDE"/>
				<stop  offset="1" style="stop-color:#B1B3B6"/>
			</linearGradient>
			<path fill="url(#SVGID_27_)" d="M178.815,49.347c-12.44,12.551-44.995,21.111-80.889,21.26
				c-5.076,0.021-10.054-0.113-14.892-0.408c4.79,0.308,9.717,0.462,14.742,0.462c47.675,0,86.459-14.554,86.459-32.241
				c0-0.675-0.062-1.346-0.173-2.01c0.078,0.546,0.118,1.098,0.12,1.65C184.201,41.916,182.373,45.759,178.815,49.347z"/>
		</g>
		
			<linearGradient id="SVGID_28_" gradientUnits="userSpaceOnUse" x1="115.5073" y1="2985.1318" x2="115.5073" y2="3080.0464" gradientTransform="matrix(0.7 0 0 0.7 16.9146 -2084.4814)">
			<stop  offset="0" style="stop-color:#FFFFFF"/>
			<stop  offset="0.5559" style="stop-color:#FCFCFC"/>
			<stop  offset="0.691" style="stop-color:#F8F8F8"/>
			<stop  offset="0.8" style="stop-color:#D1D3D4"/>
			<stop  offset="1" style="stop-color:#BCBEC0"/>
		</linearGradient>
		<path fill="url(#SVGID_28_)" d="M97.771,66.886c-45.199,0-81.84-12.755-81.84-28.483c0-15.733,36.641-28.483,81.84-28.483
			c45.196,0,81.836,12.75,81.836,28.483C179.607,54.131,142.968,66.886,97.771,66.886z M97.771,12.386
			c-43.612,0-78.962,11.646-78.962,26.017c0,14.372,35.351,26.019,78.962,26.019c43.612,0,78.961-11.648,78.961-26.019
			C176.732,24.029,141.385,12.386,97.771,12.386z"/>
		
			<linearGradient id="SVGID_29_" gradientUnits="userSpaceOnUse" x1="134.9326" y1="3011.4121" x2="134.9326" y2="3058.4854" gradientTransform="matrix(0.7 0 0 0.7 16.9146 -2081.6357)">
			<stop  offset="0" style="stop-color:#FFFFFF"/>
			<stop  offset="0.4333" style="stop-color:#FCFCFC"/>
			<stop  offset="0.5892" style="stop-color:#F5F5F5"/>
			<stop  offset="0.691" style="stop-color:#ECECED"/>
			<stop  offset="0.8" style="stop-color:#E6E7E8"/>
			<stop  offset="1" style="stop-color:#D1D3D4"/>
		</linearGradient>
		<path fill="url(#SVGID_29_)" d="M148.729,29.081c0.113-0.197-0.006-0.344-0.256-0.344c-1.308,0-3.022,0.004-4.382,0.004
			c-0.325,0-0.492,0.039-0.645,0.34c-0.503,0.964-6.628,10.145-7.769,11.924c-0.191,0.272-0.427,0.235-0.454-0.072
			c-0.115-1.061-1.03-2.276-2.471-2.857c-1.097-0.446-2.171-0.527-3.286-0.379c-2.016,0.271-3.81,1.333-5.387,2.531
			c-2.379,1.809-4.43,4.151-7.08,5.884c-1.446,0.942-3.426,1.765-4.75,0.538c-1.2-1.112-1.064-3.582,0.77-5.491
			c0.194-0.199,0.426-0.033,0.389,0.146c-0.173,0.865,0.04,1.725,0.694,2.325c0.801,0.716,1.945,0.8,2.926,0.321
			c1.157-0.575,1.836-1.682,2.035-2.939c0.307-1.945-1.193-3.666-3.071-3.805c-1.526-0.105-2.987,0.425-4.412,1.602
			c-0.714,0.592-1.121,1.03-1.738,1.909c-0.151,0.216-0.383,0.236-0.375-0.081c0.071-2.496-0.961-3.9-3.024-3.947
			c-1.6-0.036-3.312,0.83-4.646,1.896c-1.462,1.174-2.74,2.729-4.109,4.19c-0.17,0.181-0.319,0.172-0.367-0.178
			c-0.041-1.654-0.457-3.255-1.222-4.393c-0.271-0.396-0.841-0.592-1.32-0.323c-0.222,0.12-0.99,0.474-1.55,0.925
			c-0.277,0.229-0.386,0.561-0.263,0.985c0.738,2.47,0.576,5.278-0.427,7.647c-0.919,2.174-2.708,4.134-4.81,4.795
			c-1.384,0.438-2.824,0.226-3.715-1.002c-1.223-1.692-0.729-4.642,1.094-7.086c1.608-2.154,3.936-3.523,6.258-4.404
			c0.273-0.105,0.329-0.28,0.252-0.514c-0.126-0.381-0.327-0.901-0.41-1.14c-0.213-0.565-0.809-0.657-1.538-0.579
			c-1.687,0.196-3.208,0.774-4.712,1.579c-3.936,2.107-5.909,6.188-6.774,8.369c-0.416,1.049-0.772,1.704-1.233,2.284
			c-0.621,0.779-1.399,1.488-2.824,2.74c-0.127,0.113-0.225,0.354-0.116,0.576c0.146,0.301,0.887,1.348,1.095,1.439
			c0.233,0.115,0.501-0.045,0.608-0.122c0.997-0.677,2.189-1.746,2.774-2.473c0.204-0.248,0.414-0.146,0.523,0.233
			c0.544,1.941,1.971,3.529,3.942,4.191c3.609,1.219,7.353-0.543,10.179-3.609c1.796-1.951,2.444-3.203,3.132-4.056
			c1.167-1.446,3.468-4.681,6.208-6.755c1.004-0.768,2.195-1.35,2.793-0.964c0.48,0.312,0.636,1.034-0.135,2.435
			c-2.794,5.104-6.906,11.1-7.661,12.553c-0.138,0.254-0.017,0.451,0.247,0.451c1.462-0.008,2.912-0.003,4.239-0.003
			c0.221-0.011,0.32-0.112,0.43-0.269c2.145-3.356,4.164-6.551,6.328-9.854c0.121-0.196,0.232-0.045,0.237,0.039
			c0.044,0.767,0.233,1.816,0.688,2.504c0.817,1.273,1.976,1.819,3.261,1.828c1.023,0.013,1.541-0.144,2.642-0.555
			c0.898-0.334,1.619-0.771,2.171-1.167c0.323-0.225,0.379,0.15,0.371,0.21c-0.496,2.664,0.116,5.821,2.766,7.131
			c3.17,1.562,6.653-0.634,8.656-2.616c0.195-0.189,0.406-0.171,0.427,0.241c0.041,0.756,0.385,1.655,1.01,2.284
			c1.679,1.684,5.067,1.017,8.468-1.615c2.182-1.684,4.467-4.066,6.53-6.587c0.078-0.099,0.135-0.254-0.014-0.414
			c-0.313-0.328-0.769-0.704-1.079-0.994c-0.142-0.118-0.351-0.087-0.472,0.007c-2.114,2.01-4.019,4.303-6.77,6.2
			c-0.928,0.647-2.407,1.171-3.071,0.271c-0.259-0.349-0.23-0.832,0.026-1.465C135.368,49.56,148.069,30.222,148.729,29.081z
			 M131.938,45.3c0.026,0.147,0.219,0.291,0.409,0.359c0.065,0.023,0.104,0.072,0.028,0.227c-0.54,1.158-1.037,1.825-1.713,2.831
			c-0.622,0.931-1.324,1.654-2.174,2.354c-1.281,1.059-3.06,2.214-4.53,1.438c-0.653-0.34-0.936-1.254-0.922-1.991
			c0.034-2.084,0.957-4.221,2.667-6.32c2.084-2.565,4.388-3.898,5.9-3.169c1.565,0.745,1.066,2.557,0.365,3.979
			C131.915,45.116,131.912,45.209,131.938,45.3z"/>
		
			<linearGradient id="SVGID_30_" gradientUnits="userSpaceOnUse" x1="97.4819" y1="2993.4941" x2="97.4819" y2="3058.792" gradientTransform="matrix(0.7 0 0 0.7 16.9146 -2081.6357)">
			<stop  offset="0" style="stop-color:#FFFFFF"/>
			<stop  offset="0.4333" style="stop-color:#FCFCFC"/>
			<stop  offset="0.5892" style="stop-color:#F5F5F5"/>
			<stop  offset="0.691" style="stop-color:#ECECED"/>
			<stop  offset="0.8" style="stop-color:#E6E7E8"/>
			<stop  offset="1" style="stop-color:#D1D3D4"/>
		</linearGradient>
		<path fill="url(#SVGID_30_)" d="M56.593,56.31c-4.737,0.032-8.908-2.896-9.387-7.963c-0.266-2.809,0.527-5.309,2.116-7.371
			c1.41-1.836,3.796-3.362,5.815-3.735c0.656-0.12,1.54-0.044,1.905,0.392c0.572,0.666,0.407,1.397-0.165,1.69
			c-1.541,0.786-3.395,2.133-4.312,3.971c-0.745,1.502-0.895,3.312,0.242,5.034c1.902,2.871,7.204,2.949,12.133-1.628
			c1.22-1.122,2.314-2.198,3.423-3.476c2.171-2.481,2.895-3.387,5.78-7.392c0.035-0.045,0.044-0.106,0.029-0.136
			c-0.024-0.051-0.064-0.065-0.148-0.07c-1.927,0.053-3.606,0.627-5.239,1.848c-0.47,0.342-1.146,0.293-1.442-0.156
			c-0.329-0.51-0.093-1.176,0.449-1.551c2.626-1.826,5.495-2.158,8.426-2.651c-0.003,0,0.203,0.01,0.371-0.213
			c1.203-1.544,2.111-2.938,3.393-4.497c1.292-1.584,2.962-3.038,4.237-4.131c1.779-1.53,2.919-2.045,4.081-2.678
			c0.306-0.158-0.04-0.351-0.132-0.351c-6.476-1.217-13.208-2.792-19.64-0.411c-4.454,1.663-6.406,5.195-5.467,7.555
			c0.667,1.674,2.87,1.946,4.931,0.938c1.712-0.84,3.296-2.19,4.419-3.933c0.628-0.965,1.953-0.269,1.239,1.41
			c-1.883,4.424-5.479,7.933-9.858,8.08c-3.727,0.12-6.132-2.621-6.124-6.005c0.015-6.672,7.443-11.067,15.25-11.725
			c9.401-0.777,18.306,1.728,27.64,2.858c7.153,0.866,14.009,0.885,21.197-0.768c0.851-0.186,1.446,0.357,1.391,1.217
			c-0.07,1.242-1.031,2.436-3.399,3.727c-2.692,1.478-5.508,1.926-8.45,1.951c-7.113,0.058-13.741-2.715-20.598-4.205
			c0.01,0.301,0.087,0.658-0.165,0.848c-3.798,2.803-7.231,5.646-9.532,9.643c-0.078,0.092-0.036,0.182,0.098,0.172
			c1.996-0.105,3.792-0.158,5.656-0.308c0.326-0.026,0.338-0.108,0.309-0.347c-0.164-1.377,0.239-2.948,1.45-4.027
			c1.24-1.111,2.792-1.238,3.822-0.438c1.17,0.912,1.067,2.553,0.427,3.781c-0.652,1.247-1.728,1.914-2.76,2.238
			c0,0-0.217,0.048-0.186,0.244c0.041,0.314,1.448,1.095,1.568,1.303c0.116,0.198,0.055,0.504-0.158,0.738
			c-0.149,0.171-0.381,0.332-0.681,0.324c-0.241-0.004-0.388-0.088-0.696-0.254c-0.632-0.342-1.421-0.904-1.947-1.567
			c-0.18-0.226-0.271-0.229-0.719-0.205c-2.016,0.117-5.162,0.421-7.292,0.688c-0.516,0.063-0.592,0.16-0.699,0.34
			c-3.397,5.603-7.025,11.644-11.007,15.688C63.914,55.136,60.362,56.278,56.593,56.31z M88.966,31.414
			c0.055,0.288,0.167,0.343,0.297,0.317c0.647-0.129,1.355-0.661,1.774-1.277c0.382-0.561,0.561-1.367,0.183-1.689
			c-0.339-0.291-0.889-0.209-1.298,0.151C89.108,29.634,88.863,30.653,88.966,31.414L88.966,31.414"/>
	</g>
</g>
<g id="Go_Further">
	<g>
		<path fill="#425968" d="M203.58,38.349c0-7.811,4.08-11.133,11.365-11.133c4.371,0,7.023,1.282,8.743,3.061l-3.264,3.294
			c-1.108-1.05-2.537-1.981-5.509-1.981c-4.721,0-6.558,2.331-6.558,6.819c0,4.72,1.283,7.052,6.498,7.052
			c4.197,0,5.42-1.398,5.42-4.429v-0.468h-6.032v-3.963h10.752v3.527c0,6.146-2.445,9.354-10.373,9.354
			C206,49.479,203.58,45.517,203.58,38.349z"/>
		<path fill="#425968" d="M226.896,40.884c0-5.537,2.419-8.598,8.626-8.598c6.208,0,8.598,3.061,8.598,8.598
			c0,5.536-2.391,8.596-8.598,8.596S226.896,46.42,226.896,40.884z M239.543,41c0-2.797-0.875-4.546-4.021-4.546
			c-3.177,0-4.021,1.748-4.021,4.546c0,2.799,0.845,4.576,4.021,4.576C238.668,45.574,239.543,43.798,239.543,41z"/>
		<path fill="#425968" d="M252.309,27.565h15.708v4.313H257.09v4.634h10.636v4.254H257.09v8.393h-4.78L252.309,27.565
			L252.309,27.565z"/>
		<path fill="#425968" d="M270.377,41.467v-8.8h4.578v8.887c0,2.303,0.057,3.905,3.321,3.905c3.234,0,3.293-1.631,3.293-3.935
			v-8.857h4.488v8.771c0,5.653-1.514,7.985-7.81,7.985C271.953,49.424,270.377,47.12,270.377,41.467z"/>
		<path fill="#425968" d="M288.128,32.927l3.555-0.261l0.465,1.806c0.699-1.049,2.709-1.894,5.274-1.98v4.371
			c-3.875,0.029-4.721,1.546-4.721,4.138v8.16h-4.574L288.128,32.927L288.128,32.927z"/>
		<path fill="#425968" d="M298.531,32.667h2.915l0.786-4.023l3.557-0.728v4.751h3.904v3.904h-3.904v6.79
			c0,1.282,0.175,1.98,2.127,1.98h1.777v3.818c-0.67,0.058-1.895,0.058-2.71,0.058c-4.46,0-5.741-1.516-5.741-5.187v-7.462h-2.711
			V32.667L298.531,32.667z"/>
		<path fill="#425968" d="M311.791,26.547h4.547v7.228c0.67-0.729,2.244-1.486,5.361-1.486c4.982,0,5.915,2.768,5.915,6.877v9.995
			h-4.546v-9.091c0-2.012-0.233-3.469-3.002-3.469c-3.175,0-3.7,1.485-3.7,3.672v8.888h-4.575V26.547z"/>
		<path fill="#425968" d="M329.568,40.884c0-4.604,1.518-8.598,8.567-8.598c7.257,0,7.49,4.838,7.344,10.346h-11.479
			c0.262,1.982,1.221,3.148,4.167,3.148c2.533,0,3.962-0.613,5.187-1.518l2.302,2.974c-2.127,1.603-4.227,2.243-7.487,2.243
			C331.025,49.479,329.568,45.574,329.568,40.884z M334,39.368h7.312c-0.115-1.895-0.495-3.264-3.321-3.264
			S334.231,37.356,334,39.368z"/>
		<path fill="#425968" d="M347.639,32.927l3.555-0.261l0.466,1.806c0.699-1.049,2.71-1.894,5.275-1.98v4.371
			c-3.876,0.029-4.721,1.546-4.721,4.138v8.16h-4.576L347.639,32.927L347.639,32.927z"/>
	</g>
</g>
</svg>
