<?xml version="1.0" encoding="utf-8"?>
<!-- Generator: Adobe Illustrator 16.2.1, SVG Export Plug-In . SVG Version: 6.00 Build 0)  -->
<!DOCTYPE svg PUBLIC "-//W3C//DTD SVG 1.1//EN" "http://www.w3.org/Graphics/SVG/1.1/DTD/svg11.dtd">
<svg version="1.1" id="Layer_1" xmlns="http://www.w3.org/2000/svg" xmlns:xlink="http://www.w3.org/1999/xlink" x="0px" y="0px"
	 width="176.791px" height="102.46px" viewBox="0 0 176.791 102.46" enable-background="new 0 0 176.791 102.46"
	 xml:space="preserve">
<g id="ford_oval">
	<g>
		<g>
			<path fill="#D2D3D4" d="M88.395,0C39.33,0,0,14.705,0,33.146c0,18.325,39.655,33.146,88.395,33.146
				c48.743,0,88.396-14.869,88.396-33.146C176.792,14.868,137.14,0,88.395,0z M176.252,30.583c0.032,0.159,0.06,0.32,0.084,0.483
				C176.312,30.906,176.282,30.746,176.252,30.583z"/>
		</g>
		
			<radialGradient id="SVGID_1_" cx="258.2896" cy="-916.5225" r="241.18" gradientTransform="matrix(1.5825 0 0 -1.5431 -320.9902 -1048.6915)" gradientUnits="userSpaceOnUse">
			<stop  offset="0" style="stop-color:#010101"/>
			<stop  offset="0.2164" style="stop-color:#090910"/>
			<stop  offset="0.476" style="stop-color:#0E0F22"/>
			<stop  offset="0.7" style="stop-color:#0F1131"/>
			<stop  offset="0.9045" style="stop-color:#1B4581"/>
			<stop  offset="0.9204" style="stop-color:#0264A2"/>
			<stop  offset="0.936" style="stop-color:#0985C0"/>
			<stop  offset="0.948" style="stop-color:#169BD5"/>
			<stop  offset="0.955" style="stop-color:#23A6DE"/>
		</radialGradient>
		<path fill="url(#SVGID_1_)" d="M88.398,1.322C40.31,1.322,1.36,15.536,1.36,33.125c0,17.584,38.95,31.802,87.038,31.802
			c48.093,0,87.039-14.218,87.039-31.802C175.437,15.539,136.49,1.322,88.398,1.322z"/>
		<g>
			<g>
				
					<linearGradient id="SVGID_2_" gradientUnits="userSpaceOnUse" x1="124.0229" y1="-2579.937" x2="124.0229" y2="-2483.697" gradientTransform="matrix(0.7 0 0 -0.7 1.4342 -1738.9376)">
					<stop  offset="0" style="stop-color:#0C133C"/>
					<stop  offset="0.1748" style="stop-color:#0E143E"/>
					<stop  offset="0.3297" style="stop-color:#141745"/>
					<stop  offset="0.4771" style="stop-color:#17204E"/>
					<stop  offset="0.6198" style="stop-color:#1D2B5B"/>
					<stop  offset="0.758" style="stop-color:#21356B"/>
					<stop  offset="0.809" style="stop-color:#213A72"/>
					<stop  offset="0.9226" style="stop-color:#005793"/>
					<stop  offset="1" style="stop-color:#036EAA"/>
				</linearGradient>
				<path fill="url(#SVGID_2_)" d="M8.312,34.353c0-14.558,36.034-26.358,80.48-26.358c40.89,0,74.649,9.987,79.798,22.915
					c-3.433-13.604-38.024-24.289-80.2-24.289c-44.45,0-80.479,11.87-80.479,26.517c0,1.19,0.24,2.364,0.702,3.517
					C8.416,35.894,8.312,35.128,8.312,34.353z"/>
				
					<linearGradient id="SVGID_3_" gradientUnits="userSpaceOnUse" x1="125.584" y1="-2579.9443" x2="125.5839" y2="-2483.6909" gradientTransform="matrix(0.7 0 0 -0.7 1.4342 -1738.9376)">
					<stop  offset="0" style="stop-color:#0C133C"/>
					<stop  offset="0.1748" style="stop-color:#0E143E"/>
					<stop  offset="0.3297" style="stop-color:#141745"/>
					<stop  offset="0.4771" style="stop-color:#17204E"/>
					<stop  offset="0.6198" style="stop-color:#1D2B5B"/>
					<stop  offset="0.758" style="stop-color:#21356B"/>
					<stop  offset="0.809" style="stop-color:#213A72"/>
					<stop  offset="0.9226" style="stop-color:#005793"/>
					<stop  offset="1" style="stop-color:#036EAA"/>
				</linearGradient>
				<path fill="url(#SVGID_3_)" d="M171.262,29.816c0.357,1.088,0.538,2.196,0.538,3.321c0,16.031-37.344,29.029-83.409,29.029
					c-40.997,0-75.079-10.295-82.091-23.854c5.333,14.124,40.321,25.028,82.69,25.028c46.059,0,83.395-12.883,83.395-28.786
					C172.385,32.94,172,31.355,171.262,29.816z"/>
			</g>
			<g>
				
					<linearGradient id="SVGID_4_" gradientUnits="userSpaceOnUse" x1="145.7749" y1="-2559.3208" x2="145.7749" y2="-2492.6377" gradientTransform="matrix(0.7 0 0 -0.7 1.4464 -1736.0802)">
					<stop  offset="0" style="stop-color:#0C133C"/>
					<stop  offset="0.1748" style="stop-color:#0E143E"/>
					<stop  offset="0.3297" style="stop-color:#141745"/>
					<stop  offset="0.4771" style="stop-color:#17204E"/>
					<stop  offset="0.6198" style="stop-color:#1D2B5B"/>
					<stop  offset="0.758" style="stop-color:#21356B"/>
					<stop  offset="0.809" style="stop-color:#213A72"/>
					<stop  offset="0.9226" style="stop-color:#005793"/>
					<stop  offset="1" style="stop-color:#036EAA"/>
				</linearGradient>
				<path fill="url(#SVGID_4_)" d="M103.931,35.943c-1.869,1.948-2.007,4.464-0.785,5.597c0.438,0.405,0.939,0.591,1.478,0.623
					c-0.8-1.011-1.174-2.994-0.184-4.562c-0.184-0.464-0.218-0.987-0.113-1.509C104.364,35.911,104.128,35.74,103.931,35.943z"/>
				
					<linearGradient id="SVGID_5_" gradientUnits="userSpaceOnUse" x1="174.2886" y1="-2559.5752" x2="174.2886" y2="-2492.0125" gradientTransform="matrix(0.7 0 0 -0.7 1.4464 -1736.0802)">
					<stop  offset="0" style="stop-color:#0C133C"/>
					<stop  offset="0.1748" style="stop-color:#0E143E"/>
					<stop  offset="0.3297" style="stop-color:#141745"/>
					<stop  offset="0.4771" style="stop-color:#17204E"/>
					<stop  offset="0.6198" style="stop-color:#1D2B5B"/>
					<stop  offset="0.758" style="stop-color:#21356B"/>
					<stop  offset="0.809" style="stop-color:#213A72"/>
					<stop  offset="0.9226" style="stop-color:#005793"/>
					<stop  offset="1" style="stop-color:#036EAA"/>
				</linearGradient>
				<path fill="url(#SVGID_5_)" d="M123.214,40.167c-0.01-0.027-0.017-0.057-0.018-0.086c0.001,0.01,0.001,0.012,0.001,0.016
					c0.028,0.295,0.104,0.846,0.167,1.259c0.097-0.184,0.192-0.383,0.294-0.591c0.077-0.156,0.039-0.206-0.028-0.232
					C123.438,40.464,123.24,40.317,123.214,40.167z"/>
				
					<linearGradient id="SVGID_6_" gradientUnits="userSpaceOnUse" x1="178.4258" y1="-2556.9834" x2="178.4258" y2="-2495.0464" gradientTransform="matrix(0.7 0 0 -0.7 1.4464 -1736.0802)">
					<stop  offset="0" style="stop-color:#0C133C"/>
					<stop  offset="0.1748" style="stop-color:#0E143E"/>
					<stop  offset="0.3297" style="stop-color:#141745"/>
					<stop  offset="0.4771" style="stop-color:#17204E"/>
					<stop  offset="0.6198" style="stop-color:#1D2B5B"/>
					<stop  offset="0.758" style="stop-color:#21356B"/>
					<stop  offset="0.809" style="stop-color:#213A72"/>
					<stop  offset="0.9226" style="stop-color:#005793"/>
					<stop  offset="1" style="stop-color:#036EAA"/>
				</linearGradient>
				<path fill="url(#SVGID_6_)" d="M126.562,35.717c0.027,0.314,0.268,0.353,0.462,0.073c0.052-0.073,0.11-0.168,0.18-0.275
					c-0.055-0.073-0.111-0.146-0.17-0.219c-0.273-0.321-0.921-1.02-1.549-1.569C126.109,34.32,126.488,35.048,126.562,35.717z"/>
				
					<linearGradient id="SVGID_7_" gradientUnits="userSpaceOnUse" x1="141.1875" y1="-2557.8501" x2="141.1875" y2="-2493.8501" gradientTransform="matrix(0.7 0 0 -0.7 1.4464 -1736.0802)">
					<stop  offset="0" style="stop-color:#0C133C"/>
					<stop  offset="0.1748" style="stop-color:#0E143E"/>
					<stop  offset="0.3297" style="stop-color:#141745"/>
					<stop  offset="0.4771" style="stop-color:#17204E"/>
					<stop  offset="0.6198" style="stop-color:#1D2B5B"/>
					<stop  offset="0.758" style="stop-color:#21356B"/>
					<stop  offset="0.809" style="stop-color:#213A72"/>
					<stop  offset="0.9226" style="stop-color:#005793"/>
					<stop  offset="1" style="stop-color:#036EAA"/>
				</linearGradient>
				<path fill="url(#SVGID_7_)" d="M100.695,35.495c0.086-0.121,0.167-0.234,0.248-0.345c-0.366-1.126-0.93-2.231-1.33-2.65
					c0.5,0.682,0.735,1.66,0.7,2.912C100.304,35.737,100.54,35.717,100.695,35.495z"/>
				
					<linearGradient id="SVGID_8_" gradientUnits="userSpaceOnUse" x1="198.4541" y1="-2513.6133" x2="198.4541" y2="-2513.6025" gradientTransform="matrix(0.7 0 0 -0.7 1.4464 -1736.0802)">
					<stop  offset="0" style="stop-color:#0C133C"/>
					<stop  offset="0.1748" style="stop-color:#0E143E"/>
					<stop  offset="0.3297" style="stop-color:#141745"/>
					<stop  offset="0.4771" style="stop-color:#17204E"/>
					<stop  offset="0.6198" style="stop-color:#1D2B5B"/>
					<stop  offset="0.758" style="stop-color:#21356B"/>
					<stop  offset="0.809" style="stop-color:#213A72"/>
					<stop  offset="0.9226" style="stop-color:#005793"/>
					<stop  offset="1" style="stop-color:#036EAA"/>
				</linearGradient>
				<path fill="url(#SVGID_8_)" d="M140.364,23.444L140.364,23.444c0,0.002,0,0.002,0,0.006
					C140.364,23.446,140.364,23.444,140.364,23.444z"/>
				
					<linearGradient id="SVGID_9_" gradientUnits="userSpaceOnUse" x1="167.9634" y1="-2559.5483" x2="167.9634" y2="-2492.0747" gradientTransform="matrix(0.7 0 0 -0.7 1.4464 -1736.0802)">
					<stop  offset="0" style="stop-color:#0C133C"/>
					<stop  offset="0.1748" style="stop-color:#0E143E"/>
					<stop  offset="0.3297" style="stop-color:#141745"/>
					<stop  offset="0.4771" style="stop-color:#17204E"/>
					<stop  offset="0.6198" style="stop-color:#1D2B5B"/>
					<stop  offset="0.758" style="stop-color:#21356B"/>
					<stop  offset="0.809" style="stop-color:#213A72"/>
					<stop  offset="0.9226" style="stop-color:#005793"/>
					<stop  offset="1" style="stop-color:#036EAA"/>
				</linearGradient>
				<path fill="url(#SVGID_9_)" d="M115.08,47.513c0.217,0.115,0.436,0.192,0.665,0.232c-0.079-0.303-0.115-0.599-0.118-0.854
					c-0.023-2.188,0.656-4.377,2.4-6.519c2.112-2.605,4.333-3.901,5.876-3.187c-0.079-0.572-0.376-1.067-1.033-1.376
					c-1.541-0.743-3.888,0.616-6.013,3.231c-1.743,2.144-2.684,4.317-2.718,6.441C114.125,46.235,114.415,47.167,115.08,47.513z"/>
				
					<linearGradient id="SVGID_10_" gradientUnits="userSpaceOnUse" x1="109.5796" y1="-2559.5405" x2="109.5796" y2="-2492.0864" gradientTransform="matrix(0.7 0 0 -0.7 1.4464 -1736.0802)">
					<stop  offset="0" style="stop-color:#0C133C"/>
					<stop  offset="0.1748" style="stop-color:#0E143E"/>
					<stop  offset="0.3297" style="stop-color:#141745"/>
					<stop  offset="0.4771" style="stop-color:#17204E"/>
					<stop  offset="0.6198" style="stop-color:#1D2B5B"/>
					<stop  offset="0.758" style="stop-color:#21356B"/>
					<stop  offset="0.809" style="stop-color:#213A72"/>
					<stop  offset="0.9226" style="stop-color:#005793"/>
					<stop  offset="1" style="stop-color:#036EAA"/>
				</linearGradient>
				<path fill="url(#SVGID_10_)" d="M82.341,36.211c0.273-0.119,0.308-0.275,0.256-0.52c-0.092-0.416-0.382-1.45-0.469-1.695
					c0,0,0,0,0-0.001c0.067,0.227,0.009,0.402-0.263,0.505c-2.367,0.898-4.739,2.292-6.378,4.486
					c-1.857,2.491-2.361,5.498-1.115,7.222c0.295,0.406,0.647,0.705,1.039,0.904c-0.67-2.065-0.185-4.836,1.394-6.968
					C78.43,37.944,80.258,37.116,82.341,36.211z"/>
				
					<linearGradient id="SVGID_11_" gradientUnits="userSpaceOnUse" x1="138.749" y1="-2559.52" x2="138.749" y2="-2492.5271" gradientTransform="matrix(0.7 0 0 -0.7 1.4464 -1736.0802)">
					<stop  offset="0" style="stop-color:#0C133C"/>
					<stop  offset="0.1748" style="stop-color:#0E143E"/>
					<stop  offset="0.3297" style="stop-color:#141745"/>
					<stop  offset="0.4771" style="stop-color:#17204E"/>
					<stop  offset="0.6198" style="stop-color:#1D2B5B"/>
					<stop  offset="0.758" style="stop-color:#21356B"/>
					<stop  offset="0.809" style="stop-color:#213A72"/>
					<stop  offset="0.9226" style="stop-color:#005793"/>
					<stop  offset="1" style="stop-color:#036EAA"/>
				</linearGradient>
				<path fill="url(#SVGID_11_)" d="M108.722,43.846c-0.564,0.403-1.298,0.849-2.213,1.189c-1.124,0.418-1.65,0.575-2.692,0.565
					c-1.311-0.009-2.493-0.565-3.325-1.861c-0.464-0.702-0.655-1.771-0.701-2.554c-0.005-0.086-0.118-0.239-0.243-0.039
					c-2.205,3.367-4.262,6.621-6.448,10.044c-0.113,0.159-0.213,0.263-0.438,0.274c-1.354,0-2.83-0.005-4.321,0.003
					c-0.157,0-0.263-0.07-0.298-0.179c0.117,0.525,0.306,1.469,0.358,1.688c0.036,0.149,0.149,0.226,0.314,0.226
					c1.602,0,3.565,0,4.896-0.006c0.198-0.01,0.336-0.123,0.44-0.273c1.986-3.109,4.11-6.49,6.141-9.61
					c0.447,1.57,0.675,2.308,1.504,3.043c0.841,0.756,1.619,0.953,2.769,0.962c1.043,0.013,2.071-0.404,3.291-0.913
					c0.439-0.182,0.832-0.407,1.183-0.633c0-0.579,0.059-1.159,0.16-1.712C109.108,44,109.05,43.618,108.722,43.846z"/>
				
					<linearGradient id="SVGID_12_" gradientUnits="userSpaceOnUse" x1="174.4116" y1="-2559.5459" x2="174.4116" y2="-2492.0688" gradientTransform="matrix(0.7 0 0 -0.7 1.4464 -1736.0802)">
					<stop  offset="0" style="stop-color:#0C133C"/>
					<stop  offset="0.1748" style="stop-color:#0E143E"/>
					<stop  offset="0.3297" style="stop-color:#141745"/>
					<stop  offset="0.4771" style="stop-color:#17204E"/>
					<stop  offset="0.6198" style="stop-color:#1D2B5B"/>
					<stop  offset="0.758" style="stop-color:#21356B"/>
					<stop  offset="0.809" style="stop-color:#213A72"/>
					<stop  offset="0.9226" style="stop-color:#005793"/>
					<stop  offset="1" style="stop-color:#036EAA"/>
				</linearGradient>
				<path fill="url(#SVGID_12_)" d="M137.572,42.663c0,0.083-0.036,0.153-0.083,0.213c-2.103,2.57-4.431,4.997-6.655,6.713
					c-3.465,2.684-6.919,3.362-8.631,1.646c-0.637-0.641-0.986-1.558-1.029-2.328c-0.021-0.421-0.236-0.442-0.436-0.246
					c-2.042,2.021-5.591,4.261-8.822,2.667c-1.667-0.824-2.54-2.368-2.851-4.068c0.002,0.021,0.008,0.039,0.012,0.061
					c0.205,1.208,0.466,2.947,1.035,4.019c0.37,0.707,1.194,1.504,1.7,1.754c2.866,1.415,6.959-0.191,9.587-2.719
					c0.028-0.033,0.033-0.034,0.071-0.077c0.121,0.455,0.268,1.006,0.289,1.082c0.179,0.585,0.459,1.121,0.706,1.401
					c1.799,2.033,5.618,1.109,9.592-1.966c2.22-1.717,3.867-3.443,5.883-5.79c0.08-0.102,0.074-0.243,0.029-0.459
					C137.855,44.052,137.67,43.125,137.572,42.663z"/>
				
					<linearGradient id="SVGID_13_" gradientUnits="userSpaceOnUse" x1="151.5361" y1="-2559.5591" x2="151.5361" y2="-2492.053" gradientTransform="matrix(0.7 0 0 -0.7 1.4464 -1736.0802)">
					<stop  offset="0" style="stop-color:#0C133C"/>
					<stop  offset="0.1748" style="stop-color:#0E143E"/>
					<stop  offset="0.3297" style="stop-color:#141745"/>
					<stop  offset="0.4771" style="stop-color:#17204E"/>
					<stop  offset="0.6198" style="stop-color:#1D2B5B"/>
					<stop  offset="0.758" style="stop-color:#21356B"/>
					<stop  offset="0.809" style="stop-color:#213A72"/>
					<stop  offset="0.9226" style="stop-color:#005793"/>
					<stop  offset="1" style="stop-color:#036EAA"/>
				</linearGradient>
				<path fill="url(#SVGID_13_)" d="M108.687,40.372c1.064-0.574,2-1.798,1.881-3.781c-0.061-0.984-0.347-2-0.807-2.822
					c0.313,0.601,0.445,1.295,0.333,2.026c-0.203,1.282-0.895,2.409-2.075,2.995c-0.999,0.488-2.166,0.403-2.981-0.327
					c-0.256-0.234-0.441-0.513-0.572-0.808c0.211,0.964,0.394,1.677,0.646,2.06C105.884,40.873,107.216,41.167,108.687,40.372z"/>
				
					<linearGradient id="SVGID_14_" gradientUnits="userSpaceOnUse" x1="188.3267" y1="-2559.542" x2="188.3267" y2="-2492.0798" gradientTransform="matrix(0.7 0 0 -0.7 1.4464 -1736.0802)">
					<stop  offset="0" style="stop-color:#0C133C"/>
					<stop  offset="0.1748" style="stop-color:#0E143E"/>
					<stop  offset="0.3297" style="stop-color:#141745"/>
					<stop  offset="0.4771" style="stop-color:#17204E"/>
					<stop  offset="0.6198" style="stop-color:#1D2B5B"/>
					<stop  offset="0.758" style="stop-color:#21356B"/>
					<stop  offset="0.809" style="stop-color:#213A72"/>
					<stop  offset="0.9226" style="stop-color:#005793"/>
					<stop  offset="1" style="stop-color:#036EAA"/>
				</linearGradient>
				<path fill="url(#SVGID_14_)" d="M140.85,25.781c-0.041-0.187-0.446-2.147-0.485-2.326c0.012,0.052,0,0.114-0.037,0.184
					c-0.673,1.164-13.618,20.873-14.437,22.912c-0.26,0.645-0.291,1.139-0.026,1.495c0.266,0.358,0.657,0.496,1.101,0.488
					c0.042-0.247,0.138-0.529,0.257-0.828c0.818-2.042,12.942-20.468,13.608-21.635C140.889,25.968,140.869,25.855,140.85,25.781z"
					/>
				
					<linearGradient id="SVGID_15_" gradientUnits="userSpaceOnUse" x1="123.1875" y1="-2558.7944" x2="123.1875" y2="-2492.8843" gradientTransform="matrix(0.7 0 0 -0.7 1.4464 -1736.0802)">
					<stop  offset="0" style="stop-color:#0C133C"/>
					<stop  offset="0.1748" style="stop-color:#0E143E"/>
					<stop  offset="0.3297" style="stop-color:#141745"/>
					<stop  offset="0.4771" style="stop-color:#17204E"/>
					<stop  offset="0.6198" style="stop-color:#1D2B5B"/>
					<stop  offset="0.758" style="stop-color:#21356B"/>
					<stop  offset="0.809" style="stop-color:#213A72"/>
					<stop  offset="0.9226" style="stop-color:#005793"/>
					<stop  offset="1" style="stop-color:#036EAA"/>
				</linearGradient>
				<path fill="url(#SVGID_15_)" d="M86.585,32.811c0.038,0.039,0.069,0.081,0.103,0.125c0.78,1.16,1.203,2.79,1.246,4.478
					c0.049,0.356,0.201,0.363,0.374,0.181c0.157-0.16,0.311-0.328,0.462-0.495c-0.228-0.907-0.583-1.719-0.946-2.502
					C87.689,34.309,87.095,33.294,86.585,32.811z"/>
				
					<linearGradient id="SVGID_16_" gradientUnits="userSpaceOnUse" x1="112.6382" y1="-2559.5269" x2="112.6382" y2="-2492.5183" gradientTransform="matrix(0.7 0 0 -0.7 1.4464 -1736.0802)">
					<stop  offset="0" style="stop-color:#0C133C"/>
					<stop  offset="0.1748" style="stop-color:#0E143E"/>
					<stop  offset="0.3297" style="stop-color:#141745"/>
					<stop  offset="0.4771" style="stop-color:#17204E"/>
					<stop  offset="0.6198" style="stop-color:#1D2B5B"/>
					<stop  offset="0.758" style="stop-color:#21356B"/>
					<stop  offset="0.809" style="stop-color:#213A72"/>
					<stop  offset="0.9226" style="stop-color:#005793"/>
					<stop  offset="1" style="stop-color:#036EAA"/>
				</linearGradient>
				<path fill="url(#SVGID_16_)" d="M93.711,38.522c0.909-0.776,1.903-1.278,2.526-1.037c0.375-0.964,0.197-1.496-0.203-1.756
					c-0.608-0.396-1.822,0.199-2.846,0.982c-2.794,2.113-5.139,5.411-6.327,6.885c-0.701,0.87-1.362,2.144-3.193,4.134
					c-2.879,3.125-6.696,4.92-10.375,3.678c-2.01-0.675-3.463-2.293-4.018-4.271c-0.11-0.387-0.326-0.491-0.533-0.238
					c-0.595,0.741-1.811,1.831-2.826,2.521c-0.11,0.079-0.383,0.242-0.621,0.124c-0.213-0.093-0.968-1.163-1.116-1.467
					c-0.019-0.031-0.03-0.068-0.036-0.102c0,0.003,0,0.006,0,0.014c0.263,1.312,0.297,1.465,0.657,2.066
					c0.407,0.673,0.802,1.143,0.891,1.184c0.238,0.118,0.479,0.01,0.599-0.057c0.787-0.404,2.326-1.589,2.989-2.412
					c0.201-0.19,0.393-0.063,0.457,0.139c0.278,0.878,0.685,1.554,1.137,2.272c0.496,0.798,1.491,1.629,2.778,1.984
					c1.667,0.463,3.467,0.548,5.829-0.357c1.896-0.726,3.881-2.204,5.41-3.862c1.833-1.988,2.495-3.266,3.192-4.138
					C89.266,43.341,91.117,40.735,93.711,38.522z"/>
				
					<linearGradient id="SVGID_17_" gradientUnits="userSpaceOnUse" x1="61.7583" y1="-2559.5342" x2="61.7583" y2="-2492.0842" gradientTransform="matrix(0.7 0 0 -0.7 1.4464 -1736.0802)">
					<stop  offset="0" style="stop-color:#0C133C"/>
					<stop  offset="0.1748" style="stop-color:#0E143E"/>
					<stop  offset="0.3297" style="stop-color:#141745"/>
					<stop  offset="0.4771" style="stop-color:#17204E"/>
					<stop  offset="0.6198" style="stop-color:#1D2B5B"/>
					<stop  offset="0.758" style="stop-color:#21356B"/>
					<stop  offset="0.809" style="stop-color:#213A72"/>
					<stop  offset="0.9226" style="stop-color:#005793"/>
					<stop  offset="1" style="stop-color:#036EAA"/>
				</linearGradient>
				<path fill="url(#SVGID_17_)" d="M42.879,43.662c-0.371-1.457,0.029-3.026,0.615-4.2c0.931-1.875,2.236-2.771,3.524-3.581
					c0.552-0.352,0.799-0.692,0.47-1.604c-0.094-0.259-0.147-0.729-0.25-1.145c0.033,0.407-0.166,0.757-0.528,0.942
					c-1.571,0.802-3.46,2.174-4.395,4.047c-0.759,1.531-0.912,3.375,0.247,5.131C42.659,43.393,42.763,43.534,42.879,43.662z"/>
				
					<linearGradient id="SVGID_18_" gradientUnits="userSpaceOnUse" x1="91.96" y1="-2559.5244" x2="91.96" y2="-2492.0847" gradientTransform="matrix(0.7 0 0 -0.7 1.4464 -1736.0802)">
					<stop  offset="0" style="stop-color:#0C133C"/>
					<stop  offset="0.1748" style="stop-color:#0E143E"/>
					<stop  offset="0.3297" style="stop-color:#141745"/>
					<stop  offset="0.4771" style="stop-color:#17204E"/>
					<stop  offset="0.6198" style="stop-color:#1D2B5B"/>
					<stop  offset="0.758" style="stop-color:#21356B"/>
					<stop  offset="0.809" style="stop-color:#213A72"/>
					<stop  offset="0.9226" style="stop-color:#005793"/>
					<stop  offset="1" style="stop-color:#036EAA"/>
				</linearGradient>
				<path fill="url(#SVGID_18_)" d="M53.87,24c-0.32-2.22,1.341-5.853,5.707-7.294c5.708-1.883,12.073-0.694,17.19,0.401
					c0.714-0.447,1.34-0.756,1.968-1.099c0.312-0.161-0.041-0.358-0.134-0.358C72,14.41,65.139,12.805,58.583,15.232
					c-4.54,1.695-6.529,5.295-5.572,7.701C53.198,23.393,53.491,23.748,53.87,24z"/>
				
					<linearGradient id="SVGID_19_" gradientUnits="userSpaceOnUse" x1="83.1582" y1="-2559.5405" x2="83.1582" y2="-2492.0759" gradientTransform="matrix(0.7 0 0 -0.7 1.4464 -1736.0802)">
					<stop  offset="0" style="stop-color:#0C133C"/>
					<stop  offset="0.1748" style="stop-color:#0E143E"/>
					<stop  offset="0.3297" style="stop-color:#141745"/>
					<stop  offset="0.4771" style="stop-color:#17204E"/>
					<stop  offset="0.6198" style="stop-color:#1D2B5B"/>
					<stop  offset="0.758" style="stop-color:#21356B"/>
					<stop  offset="0.809" style="stop-color:#213A72"/>
					<stop  offset="0.9226" style="stop-color:#005793"/>
					<stop  offset="1" style="stop-color:#036EAA"/>
				</linearGradient>
				<path fill="url(#SVGID_19_)" d="M71.317,31.038c2.174-0.271,4.124-0.393,6.046-0.573c0.572-0.056,1.007-0.106,1.216,0.102
					c0.695,0.695,1.5,1.331,2.035,1.637c0.355,0.004,0.653,0.081,0.861,0.271c0.223-0.03,0.429-0.154,0.562-0.283
					c0.25-0.24,0.259-0.528,0.217-0.773c-0.087-0.474-0.213-1.409-0.365-1.677c0.104,0.204,0.038,0.499-0.17,0.732
					c-0.152,0.174-0.39,0.337-0.694,0.332c-0.245-0.006-0.396-0.091-0.709-0.26c-0.645-0.349-1.448-0.922-1.985-1.597
					c-0.183-0.23-0.276-0.233-0.732-0.209c-2.056,0.119-5.261,0.428-7.433,0.7c-0.526,0.065-0.604,0.163-0.712,0.348
					c-3.462,5.711-7.161,11.868-11.219,15.989c-4.353,4.421-7.974,5.585-11.815,5.616c-4.437,0.03-8.384-2.485-9.378-6.9
					c0.533,2.463,2.124,5.437,3.961,6.73c1.869,1.318,3.712,1.757,5.863,1.795c4.369,0.074,8.359-1.725,12.588-6.022
					c4.062-4.122,7.578-9.877,11.043-15.587C70.615,31.201,70.735,31.111,71.317,31.038z"/>
				
					<linearGradient id="SVGID_20_" gradientUnits="userSpaceOnUse" x1="84.7642" y1="-2559.5586" x2="84.7642" y2="-2492.0615" gradientTransform="matrix(0.7 0 0 -0.7 1.4464 -1736.0802)">
					<stop  offset="0" style="stop-color:#0C133C"/>
					<stop  offset="0.1748" style="stop-color:#0E143E"/>
					<stop  offset="0.3297" style="stop-color:#141745"/>
					<stop  offset="0.4771" style="stop-color:#17204E"/>
					<stop  offset="0.6198" style="stop-color:#1D2B5B"/>
					<stop  offset="0.758" style="stop-color:#21356B"/>
					<stop  offset="0.809" style="stop-color:#213A72"/>
					<stop  offset="0.9226" style="stop-color:#005793"/>
					<stop  offset="1" style="stop-color:#036EAA"/>
				</linearGradient>
				<path fill="url(#SVGID_20_)" d="M64.186,30.307c-1.964,0.055-3.675,0.639-5.339,1.884c-0.479,0.349-1.168,0.299-1.47-0.159
					c-0.101-0.155-0.15-0.325-0.154-0.497c-0.043,0.741,0.253,1.826,0.494,2.191c0.263,0.404,1.002,0.604,1.591,0.169
					c1.323-0.978,2.52-1.546,3.858-1.801c0.344-0.469,0.718-0.99,1.143-1.578c0.037-0.046,0.044-0.107,0.029-0.14
					C64.313,30.328,64.271,30.312,64.186,30.307z"/>
				
					<linearGradient id="SVGID_21_" gradientUnits="userSpaceOnUse" x1="160.9058" y1="-2558.2891" x2="160.9058" y2="-2492.2546" gradientTransform="matrix(0.7 0 0 -0.7 1.4464 -1736.0802)">
					<stop  offset="0" style="stop-color:#0C133C"/>
					<stop  offset="0.1748" style="stop-color:#0E143E"/>
					<stop  offset="0.3297" style="stop-color:#141745"/>
					<stop  offset="0.4771" style="stop-color:#17204E"/>
					<stop  offset="0.6198" style="stop-color:#1D2B5B"/>
					<stop  offset="0.758" style="stop-color:#21356B"/>
					<stop  offset="0.809" style="stop-color:#213A72"/>
					<stop  offset="0.9226" style="stop-color:#005793"/>
					<stop  offset="1" style="stop-color:#036EAA"/>
				</linearGradient>
				<path fill="url(#SVGID_21_)" d="M114.041,14.012c0.029,0.04,0.055,0.083,0.08,0.129
					C114.097,14.091,114.071,14.045,114.041,14.012z"/>
				
					<linearGradient id="SVGID_22_" gradientUnits="userSpaceOnUse" x1="130.6689" y1="-2559.5322" x2="130.6689" y2="-2492.0872" gradientTransform="matrix(0.7 0 0 -0.7 1.4464 -1736.0802)">
					<stop  offset="0" style="stop-color:#0C133C"/>
					<stop  offset="0.1748" style="stop-color:#0E143E"/>
					<stop  offset="0.3297" style="stop-color:#141745"/>
					<stop  offset="0.4771" style="stop-color:#17204E"/>
					<stop  offset="0.6198" style="stop-color:#1D2B5B"/>
					<stop  offset="0.758" style="stop-color:#21356B"/>
					<stop  offset="0.809" style="stop-color:#213A72"/>
					<stop  offset="0.9226" style="stop-color:#005793"/>
					<stop  offset="1" style="stop-color:#036EAA"/>
				</linearGradient>
				<path fill="url(#SVGID_22_)" d="M71.297,27.049c-0.08,0.093-0.037,0.185,0.1,0.173c0.618-0.029,1.215-0.059,1.806-0.09
					c2.135-3.34,4.417-5.259,7.909-7.835c0.258-0.194,0.521-0.334,0.435-1.079c7.007,1.556,12.34,4.136,21.395,4.161
					c2.7,0.006,6.511-0.894,8.558-2.129c2.355-1.417,2.982-2.457,3.068-3.56c0.026-0.342-0.062-0.852-0.12-1.118
					c-0.08-0.373-0.133-0.847-0.239-1.2c0.038,0.144,0.054,0.308,0.042,0.486c-0.071,1.265-1.051,2.483-3.463,3.799
					c-2.745,1.506-5.614,1.962-8.614,1.987c-7.25,0.06-14.005-2.767-20.994-4.286c0.011,0.308,0.089,0.67-0.167,0.865
					C77.139,20.076,73.641,22.976,71.297,27.049z"/>
				
					<linearGradient id="SVGID_23_" gradientUnits="userSpaceOnUse" x1="113.1626" y1="-2557.2432" x2="113.1626" y2="-2493.4941" gradientTransform="matrix(0.7 0 0 -0.7 1.4464 -1736.0802)">
					<stop  offset="0" style="stop-color:#0C133C"/>
					<stop  offset="0.1748" style="stop-color:#0E143E"/>
					<stop  offset="0.3297" style="stop-color:#141745"/>
					<stop  offset="0.4771" style="stop-color:#17204E"/>
					<stop  offset="0.6198" style="stop-color:#1D2B5B"/>
					<stop  offset="0.758" style="stop-color:#21356B"/>
					<stop  offset="0.809" style="stop-color:#213A72"/>
					<stop  offset="0.9226" style="stop-color:#005793"/>
					<stop  offset="1" style="stop-color:#036EAA"/>
				</linearGradient>
				<path fill="url(#SVGID_23_)" d="M80.733,25.083c0.29-0.256,0.651-0.376,0.96-0.321c0.268-0.531,0.344-1.168,0.02-1.447
					c-0.314-0.274-0.812-0.225-1.216,0.063c-0.086,0.083-0.183,0.167-0.279,0.252c-0.69,0.719-0.902,1.667-0.801,2.384
					c0.056,0.292,0.17,0.348,0.303,0.323c0.13-0.025,0.264-0.07,0.399-0.125C80.169,25.819,80.334,25.437,80.733,25.083z"/>
				
					<linearGradient id="SVGID_24_" gradientUnits="userSpaceOnUse" x1="115.3276" y1="-2559.5391" x2="115.3276" y2="-2492.0835" gradientTransform="matrix(0.7 0 0 -0.7 1.4464 -1736.0802)">
					<stop  offset="0" style="stop-color:#0C133C"/>
					<stop  offset="0.1748" style="stop-color:#0E143E"/>
					<stop  offset="0.3297" style="stop-color:#141745"/>
					<stop  offset="0.4771" style="stop-color:#17204E"/>
					<stop  offset="0.6198" style="stop-color:#1D2B5B"/>
					<stop  offset="0.758" style="stop-color:#21356B"/>
					<stop  offset="0.809" style="stop-color:#213A72"/>
					<stop  offset="0.9226" style="stop-color:#005793"/>
					<stop  offset="1" style="stop-color:#036EAA"/>
				</linearGradient>
				<path fill="url(#SVGID_24_)" d="M83.652,27.462c0.333-0.732,0.514-1.31,0.37-2.569c-0.104-0.879-0.281-1.678-0.517-2.088
					c0.453,0.921,0.271,2.107-0.219,3.053c-0.664,1.272-1.761,1.953-2.813,2.281c0,0-0.221,0.049-0.189,0.249
					c0.026,0.229,0.774,0.701,1.241,1.031c0.066-0.019,0.167-0.058,0.167-0.058C82.229,29.155,83.13,28.606,83.652,27.462z"/>
				
					<linearGradient id="SVGID_25_" gradientUnits="userSpaceOnUse" x1="78.3481" y1="-2559.541" x2="78.3481" y2="-2492.0789" gradientTransform="matrix(0.7 0 0 -0.7 1.4464 -1736.0802)">
					<stop  offset="0" style="stop-color:#0C133C"/>
					<stop  offset="0.1748" style="stop-color:#0E143E"/>
					<stop  offset="0.3297" style="stop-color:#141745"/>
					<stop  offset="0.4771" style="stop-color:#17204E"/>
					<stop  offset="0.6198" style="stop-color:#1D2B5B"/>
					<stop  offset="0.758" style="stop-color:#21356B"/>
					<stop  offset="0.809" style="stop-color:#213A72"/>
					<stop  offset="0.9226" style="stop-color:#005793"/>
					<stop  offset="1" style="stop-color:#036EAA"/>
				</linearGradient>
				<path fill="url(#SVGID_25_)" d="M51.451,29.881c0.969,0.605,2.161,0.938,3.525,0.892c4.651-0.157,8.173-3.987,9.342-7.228
					c0.313-0.874,0.071-1.81-0.076-2.441c-0.058-0.245-0.139-0.794-0.316-1.188h-0.002c0.134,0.321,0.134,0.799-0.12,1.401
					c-1.918,4.509-5.584,8.085-10.047,8.235c-2.691,0.088-4.707-1.291-5.648-3.327C48.799,27.749,50.212,29.104,51.451,29.881z"/>
			</g>
		</g>
		<g>
			<path fill="#595A5C" d="M88.395,0C39.33,0,0,14.705,0,33.146c0,18.325,39.655,33.146,88.395,33.146
				c48.743,0,88.396-14.869,88.396-33.146C176.792,14.868,137.14,0,88.395,0z M0.608,33.511C0.59,29.631,2.3,25.775,5.894,22.15
				C18.548,9.384,51.706,0.757,88.246,0.604c48.408-0.199,87.857,14.235,87.94,32.177c0.018,3.876-1.798,7.682-5.391,11.307
				c-12.656,12.768-45.711,21.445-82.25,21.596C40.139,65.885,0.69,51.452,0.608,33.511z M176.252,30.583
				c0.032,0.159,0.06,0.32,0.084,0.483C176.312,30.906,176.282,30.746,176.252,30.583z"/>
		</g>
		<g>
			<g>
				
					<linearGradient id="SVGID_26_" gradientUnits="userSpaceOnUse" x1="80.9595" y1="-146.8208" x2="60.5345" y2="-70.5943" gradientTransform="matrix(1 0 0 -1 -12 -64.7139)">
					<stop  offset="0" style="stop-color:#B2B3B6"/>
					<stop  offset="0.35" style="stop-color:#DCDDDE"/>
					<stop  offset="0.65" style="stop-color:#DCDDDE"/>
					<stop  offset="1" style="stop-color:#B2B3B6"/>
				</linearGradient>
				<path fill="url(#SVGID_26_)" d="M5.698,21.955C18.423,9.118,51.613,0.48,88.245,0.329c5.076-0.021,10.051,0.121,14.896,0.41
					c-4.798-0.304-9.723-0.463-14.746-0.463c-48.866,0-88.127,14.652-88.127,32.869c0,0.867,0.1,1.72,0.277,2.57
					c-0.133-0.729-0.21-1.464-0.214-2.205C0.314,29.58,2.074,25.612,5.698,21.955z"/>
			</g>
			
				<linearGradient id="SVGID_27_" gradientUnits="userSpaceOnUse" x1="134.729" y1="-105.105" x2="114.4001" y2="-29.2365" gradientTransform="matrix(1 0 0 -1 -12 -64.7139)">
				<stop  offset="0" style="stop-color:#B2B3B6"/>
				<stop  offset="0.35" style="stop-color:#DCDDDE"/>
				<stop  offset="0.65" style="stop-color:#DCDDDE"/>
				<stop  offset="1" style="stop-color:#B2B3B6"/>
			</linearGradient>
			<path fill="url(#SVGID_27_)" d="M170.992,44.292c-12.679,12.792-45.86,21.517-82.444,21.669
				c-5.173,0.021-10.247-0.116-15.178-0.416c4.882,0.313,9.903,0.471,15.025,0.471c48.592,0,88.121-14.833,88.121-32.861
				c0-0.688-0.063-1.372-0.176-2.048c0.08,0.557,0.12,1.119,0.122,1.682C176.481,36.718,174.618,40.635,170.992,44.292z"/>
		</g>
		
			<linearGradient id="SVGID_28_" gradientUnits="userSpaceOnUse" x1="124.2202" y1="-2483.063" x2="124.2202" y2="-2579.801" gradientTransform="matrix(0.7 0 0 -0.7 1.4342 -1738.9376)">
			<stop  offset="0" style="stop-color:#FFFFFF"/>
			<stop  offset="0.5559" style="stop-color:#FDFEFF"/>
			<stop  offset="0.691" style="stop-color:#F7F8F8"/>
			<stop  offset="0.8" style="stop-color:#D2D3D4"/>
			<stop  offset="1" style="stop-color:#BDBEC0"/>
		</linearGradient>
		<path fill="url(#SVGID_28_)" d="M88.39,62.167c-46.068,0-83.413-13-83.413-29.03c0-16.036,37.345-29.031,83.413-29.031
			c46.064,0,83.409,12.995,83.409,29.031C171.799,49.168,134.456,62.167,88.39,62.167z M88.39,6.621
			c-44.45,0-80.479,11.87-80.479,26.517c0,14.648,36.03,26.519,80.479,26.519c44.45,0,80.479-11.873,80.479-26.519
			C168.869,18.487,132.842,6.621,88.39,6.621z"/>
		
			<linearGradient id="SVGID_29_" gradientUnits="userSpaceOnUse" x1="144.021" y1="-2509.9263" x2="144.021" y2="-2557.9038" gradientTransform="matrix(0.7 0 0 -0.7 1.4342 -1736.0919)">
			<stop  offset="0" style="stop-color:#FFFFFF"/>
			<stop  offset="0.4333" style="stop-color:#FDFEFF"/>
			<stop  offset="0.5892" style="stop-color:#F5F6F6"/>
			<stop  offset="0.691" style="stop-color:#ECECED"/>
			<stop  offset="0.8" style="stop-color:#E7E7E7"/>
			<stop  offset="1" style="stop-color:#D2D3D4"/>
		</linearGradient>
		<path fill="url(#SVGID_29_)" d="M140.328,23.637c0.115-0.201-0.006-0.351-0.261-0.351c-1.333,0-3.08,0.004-4.467,0.004
			c-0.331,0-0.501,0.04-0.657,0.347c-0.513,0.982-6.755,10.34-7.918,12.153c-0.195,0.278-0.435,0.24-0.462-0.073
			c-0.117-1.082-1.05-2.32-2.519-2.912c-1.118-0.455-2.213-0.538-3.35-0.386c-2.054,0.276-3.883,1.358-5.49,2.58
			c-2.424,1.843-4.515,4.23-7.216,5.996c-1.474,0.961-3.492,1.8-4.841,0.549c-1.224-1.133-1.084-3.651,0.785-5.597
			c0.198-0.203,0.434-0.034,0.396,0.148c-0.176,0.882,0.041,1.758,0.708,2.37c0.816,0.73,1.982,0.815,2.982,0.328
			c1.179-0.586,1.872-1.714,2.074-2.996c0.313-1.982-1.216-3.736-3.13-3.877c-1.556-0.107-3.045,0.433-4.497,1.633
			c-0.728,0.603-1.143,1.049-1.771,1.945c-0.154,0.22-0.39,0.241-0.382-0.083c0.073-2.544-0.979-3.975-3.082-4.023
			c-1.631-0.037-3.375,0.846-4.735,1.933c-1.49,1.196-2.792,2.781-4.188,4.27c-0.173,0.185-0.325,0.176-0.375-0.181
			c-0.042-1.686-0.465-3.317-1.245-4.477c-0.276-0.404-0.857-0.604-1.346-0.33c-0.226,0.123-1.009,0.483-1.58,0.943
			c-0.282,0.233-0.394,0.572-0.268,1.003c0.752,2.518,0.587,5.38-0.435,7.794c-0.937,2.216-2.76,4.213-4.902,4.887
			c-1.411,0.446-2.879,0.23-3.787-1.021c-1.247-1.725-0.743-4.732,1.115-7.222c1.639-2.196,4.012-3.591,6.378-4.489
			c0.278-0.107,0.335-0.286,0.257-0.524c-0.128-0.388-0.333-0.918-0.418-1.162c-0.217-0.576-0.824-0.669-1.567-0.59
			c-1.719,0.2-3.27,0.79-4.803,1.61c-4.011,2.148-6.022,6.306-6.904,8.53c-0.424,1.069-0.787,1.737-1.257,2.328
			c-0.633,0.793-1.426,1.516-2.878,2.792c-0.129,0.115-0.229,0.361-0.118,0.587c0.148,0.307,0.903,1.374,1.116,1.467
			c0.237,0.118,0.51-0.046,0.619-0.125c1.017-0.689,2.231-1.779,2.828-2.521c0.208-0.253,0.422-0.148,0.533,0.238
			c0.555,1.979,2.009,3.597,4.018,4.272c3.679,1.242,7.495-0.553,10.375-3.679c1.831-1.988,2.491-3.264,3.192-4.134
			c1.189-1.474,3.535-4.771,6.328-6.885c1.023-0.783,2.237-1.376,2.847-0.981c0.489,0.317,0.648,1.053-0.138,2.481
			c-2.847,5.203-7.038,11.314-7.808,12.795c-0.141,0.259-0.018,0.458,0.251,0.458c1.491-0.008,2.968-0.003,4.32-0.003
			c0.225-0.011,0.326-0.113,0.438-0.274c2.186-3.42,4.244-6.677,6.45-10.043c0.123-0.199,0.236-0.046,0.242,0.04
			c0.045,0.782,0.237,1.852,0.701,2.552c0.833,1.298,2.014,1.854,3.323,1.863c1.043,0.014,1.571-0.147,2.693-0.565
			c0.916-0.34,1.65-0.786,2.213-1.19c0.329-0.229,0.386,0.153,0.378,0.215c-0.505,2.715,0.119,5.932,2.819,7.268
			c3.231,1.593,6.781-0.647,8.822-2.667c0.199-0.192,0.414-0.174,0.436,0.246c0.042,0.771,0.392,1.687,1.029,2.327
			c1.711,1.717,5.164,1.037,8.631-1.645c2.224-1.717,4.553-4.144,6.655-6.713c0.08-0.102,0.138-0.259-0.015-0.422
			c-0.319-0.334-0.783-0.717-1.099-1.013c-0.145-0.12-0.358-0.088-0.481,0.007c-2.154,2.05-4.096,4.387-6.9,6.319
			c-0.946,0.659-2.453,1.194-3.13,0.277c-0.264-0.356-0.234-0.848,0.026-1.493C126.71,44.51,139.655,24.8,140.328,23.637z
			 M123.214,40.167c0.026,0.15,0.223,0.297,0.417,0.366c0.066,0.023,0.106,0.073,0.028,0.231c-0.55,1.181-1.057,1.86-1.746,2.886
			c-0.634,0.949-1.35,1.686-2.216,2.398c-1.305,1.08-3.118,2.258-4.617,1.466c-0.666-0.346-0.954-1.278-0.94-2.029
			c0.035-2.124,0.976-4.302,2.718-6.441c2.124-2.615,4.472-3.974,6.014-3.23c1.595,0.758,1.086,2.606,0.372,4.055
			C123.19,39.98,123.188,40.075,123.214,40.167z"/>
		
			<linearGradient id="SVGID_30_" gradientUnits="userSpaceOnUse" x1="105.8506" y1="-2491.6636" x2="105.8506" y2="-2558.2175" gradientTransform="matrix(0.7 0 0 -0.7 1.4342 -1736.0919)">
			<stop  offset="0" style="stop-color:#FFFFFF"/>
			<stop  offset="0.4333" style="stop-color:#FDFEFF"/>
			<stop  offset="0.5892" style="stop-color:#F5F6F6"/>
			<stop  offset="0.691" style="stop-color:#ECECED"/>
			<stop  offset="0.8" style="stop-color:#E7E7E7"/>
			<stop  offset="1" style="stop-color:#D2D3D4"/>
		</linearGradient>
		<path fill="url(#SVGID_30_)" d="M46.42,51.39c-4.828,0.032-9.079-2.952-9.567-8.116c-0.271-2.863,0.537-5.412,2.157-7.513
			c1.437-1.872,3.869-3.427,5.927-3.807c0.668-0.123,1.569-0.045,1.941,0.399c0.583,0.679,0.415,1.424-0.168,1.723
			c-1.571,0.801-3.46,2.174-4.395,4.047c-0.759,1.531-0.912,3.375,0.247,5.131c1.938,2.926,7.342,3.006,12.366-1.659
			c1.244-1.144,2.359-2.24,3.489-3.542c2.213-2.529,2.951-3.453,5.892-7.535c0.036-0.045,0.044-0.108,0.029-0.139
			c-0.024-0.052-0.065-0.066-0.151-0.071c-1.964,0.055-3.675,0.639-5.339,1.884c-0.479,0.349-1.168,0.299-1.47-0.159
			c-0.335-0.52-0.095-1.198,0.458-1.581c2.676-1.861,5.6-2.2,8.587-2.702c-0.003,0,0.207,0.01,0.378-0.218
			c1.226-1.574,2.152-2.994,3.458-4.583c1.316-1.614,3.019-3.096,4.318-4.21c1.813-1.56,2.976-2.084,4.16-2.729
			c0.312-0.161-0.041-0.358-0.134-0.358c-6.601-1.241-13.462-2.846-20.018-0.419c-4.54,1.695-6.529,5.295-5.572,7.701
			c0.68,1.706,2.925,1.983,5.026,0.956c1.745-0.856,3.359-2.232,4.504-4.008c0.64-0.983,1.99-0.274,1.262,1.437
			c-1.919,4.509-5.584,8.085-10.047,8.235c-3.798,0.123-6.25-2.671-6.242-6.12c0.016-6.8,7.586-11.28,15.543-11.95
			c9.582-0.792,18.658,1.761,28.171,2.913c7.291,0.882,14.278,0.902,21.604-0.783c0.867-0.19,1.474,0.364,1.418,1.24
			c-0.071,1.266-1.051,2.483-3.464,3.799c-2.744,1.506-5.614,1.963-8.613,1.989c-7.25,0.059-14.005-2.768-20.994-4.286
			c0.01,0.307,0.089,0.67-0.168,0.865c-3.872,2.856-7.371,5.754-9.715,9.828c-0.08,0.094-0.037,0.186,0.1,0.176
			c2.034-0.107,3.865-0.161,5.764-0.314c0.333-0.026,0.345-0.11,0.315-0.354c-0.167-1.403,0.244-3.004,1.478-4.104
			c1.264-1.132,2.845-1.262,3.896-0.446c1.192,0.93,1.087,2.602,0.436,3.853c-0.665,1.271-1.761,1.951-2.813,2.282
			c0,0-0.221,0.048-0.189,0.249c0.042,0.32,1.476,1.116,1.597,1.328c0.119,0.202,0.057,0.513-0.16,0.752
			c-0.152,0.174-0.388,0.338-0.694,0.33c-0.245-0.004-0.395-0.089-0.709-0.259c-0.645-0.349-1.448-0.921-1.985-1.597
			c-0.183-0.23-0.276-0.233-0.732-0.209c-2.055,0.119-5.261,0.429-7.432,0.701c-0.526,0.064-0.604,0.163-0.712,0.346
			c-3.462,5.711-7.16,11.868-11.219,15.99C53.882,50.192,50.262,51.355,46.42,51.39z M79.416,26.015
			c0.056,0.293,0.17,0.349,0.303,0.323c0.659-0.131,1.381-0.674,1.808-1.301c0.389-0.572,0.572-1.394,0.187-1.722
			c-0.346-0.296-0.906-0.213-1.323,0.154C79.561,24.2,79.311,25.239,79.416,26.015L79.416,26.015"/>
	</g>
</g>
<g id="Go_Further">
	<g>
		<path fill="#435A69" d="M28.234,93.713c0-6.138,3.206-8.748,8.93-8.748c3.434,0,5.518,1.007,6.869,2.405l-2.564,2.588
			c-0.871-0.824-1.993-1.556-4.329-1.556c-3.709,0-5.152,1.831-5.152,5.358c0,3.707,1.009,5.54,5.105,5.54
			c3.298,0,4.259-1.1,4.259-3.479v-0.368h-4.74V92.34h8.448v2.771c0,4.828-1.922,7.35-8.15,7.35
			C30.136,102.458,28.234,99.345,28.234,93.713z"/>
		<path fill="#435A69" d="M46.554,95.705c0-4.35,1.9-6.755,6.776-6.755c4.878,0,6.756,2.405,6.756,6.755s-1.879,6.755-6.756,6.755
			C48.454,102.459,46.554,100.054,46.554,95.705z M56.491,95.796c0-2.198-0.688-3.572-3.16-3.572c-2.495,0-3.158,1.373-3.158,3.572
			s0.663,3.595,3.158,3.595C55.803,99.389,56.491,97.995,56.491,95.796z"/>
		<path fill="#435A69" d="M66.521,85.239h12.342v3.391h-8.586v3.64h8.357v3.343h-8.357v6.594h-3.754L66.521,85.239L66.521,85.239z"
			/>
		<path fill="#435A69" d="M80.717,96.164V89.25h3.597v6.982c0,1.809,0.044,3.067,2.609,3.067c2.541,0,2.587-1.281,2.587-3.093V89.25
			h3.527v6.89c0,4.441-1.189,6.274-6.136,6.274C81.956,102.414,80.717,100.604,80.717,96.164z"/>
		<path fill="#435A69" d="M94.664,89.453l2.793-0.205l0.365,1.42c0.55-0.825,2.128-1.489,4.143-1.557v3.435
			c-3.044,0.023-3.708,1.216-3.708,3.251v6.412h-3.594L94.664,89.453L94.664,89.453z"/>
		<path fill="#435A69" d="M102.838,89.25h2.29l0.618-3.161l2.794-0.573v3.734h3.067v3.065h-3.067v5.337
			c0,1.006,0.138,1.555,1.672,1.555h1.396v2.999c-0.526,0.046-1.489,0.046-2.128,0.046c-3.504,0-4.511-1.191-4.511-4.075v-5.862
			h-2.13V89.25L102.838,89.25z"/>
		<path fill="#435A69" d="M113.256,84.44h3.572v5.68c0.527-0.573,1.764-1.168,4.213-1.168c3.914,0,4.647,2.174,4.647,5.403v7.854
			h-3.571v-7.143c0-1.581-0.183-2.726-2.359-2.726c-2.495,0-2.907,1.166-2.907,2.884v6.984h-3.595V84.44L113.256,84.44z"/>
		<path fill="#435A69" d="M127.224,95.705c0-3.617,1.192-6.755,6.73-6.755c5.702,0,5.886,3.801,5.77,8.129h-9.019
			c0.206,1.558,0.959,2.474,3.274,2.474c1.991,0,3.113-0.481,4.076-1.193l1.809,2.337c-1.67,1.259-3.321,1.762-5.882,1.762
			C128.369,102.458,127.224,99.389,127.224,95.705z M130.706,94.513h5.746c-0.09-1.488-0.389-2.564-2.609-2.564
			C131.621,91.949,130.888,92.932,130.706,94.513z"/>
		<path fill="#435A69" d="M141.422,89.453l2.793-0.205l0.366,1.42c0.549-0.825,2.129-1.489,4.144-1.557v3.435
			c-3.045,0.023-3.709,1.216-3.709,3.251v6.412h-3.596L141.422,89.453L141.422,89.453z"/>
	</g>
</g>
</svg>
